<?xml version="1.0" encoding="UTF-8" standalone="no"?>
<!-- Created with Inkscape (http://www.inkscape.org/) -->

<svg
   width="8.875in"
   height="17.5in"
   viewBox="0 0 225.425 444.50001"
   version="1.1"
   id="svg5"
   inkscape:version="1.1.1 (c3084ef, 2021-09-22)"
   sodipodi:docname="board-notext.svg"
   xmlns:inkscape="http://www.inkscape.org/namespaces/inkscape"
   xmlns:sodipodi="http://sodipodi.sourceforge.net/DTD/sodipodi-0.dtd"
   xmlns="http://www.w3.org/2000/svg"
   xmlns:svg="http://www.w3.org/2000/svg">
  <sodipodi:namedview
     id="namedview7"
     pagecolor="#ffffff"
     bordercolor="#666666"
     borderopacity="1.0"
     inkscape:pageshadow="2"
     inkscape:pageopacity="0.0"
     inkscape:pagecheckerboard="0"
     inkscape:document-units="mm"
     showgrid="false"
     units="in"
     inkscape:snap-global="true"
     showguides="true"
     inkscape:guide-bbox="true"
     inkscape:zoom="4.8612966"
     inkscape:cx="513.75183"
     inkscape:cy="942.85545"
     inkscape:window-width="1504"
     inkscape:window-height="1639"
     inkscape:window-x="3296"
     inkscape:window-y="25"
     inkscape:window-maximized="0"
     inkscape:current-layer="layer1">
    <sodipodi:guide
       position="47.28866,447.56187"
       orientation="1,0"
       id="guide587" />
    <sodipodi:guide
       position="177.58763,445.52063"
       orientation="1,0"
       id="guide589" />
  </sodipodi:namedview>
  <defs
     id="defs2" />
  <g
     inkscape:label="Layer 1"
     inkscape:groupmode="layer"
     id="layer1">
    <path
       d="m 109.32709,155.89884 c 0.0804,0.30833 0.0537,0.64078 0.0616,0.96252 0.11796,-0.32442 0.2413,-0.64883 0.35659,-0.97593 0.83382,-0.31369 1.3191,0.55499 2.1851,-0.12869 2.5122,-0.008 5.04585,0.0804 7.54733,0.33514 13.68975,1.34592 26.86741,7.11835 37.17092,16.23413 2.92777,2.53097 5.46142,5.31664 7.95754,8.25514 -0.0349,0.16623 -0.11797,0.29492 -0.24934,0.3834 l 0.43165,-0.0349 c 0.47456,0.46651 0.86332,1.02418 1.24672,1.56576 2.74814,3.64095 5.1102,7.60364 7.04864,11.73522 0.19573,0.43434 0.31638,0.70782 0.12066,1.17433 0.53354,-0.0616 0.52817,0.33782 0.70512,0.70513 3.15299,7.30603 4.90644,15.11611 5.2818,23.05756 0.003,0.65151 0.12065,1.37541 -0.067,1.99743 0.15014,0.37536 0.15282,0.65687 0.1126,1.06172 -0.22789,0.0188 -0.45578,0.0375 -0.68368,0.0537 l -0.0134,0.22253 c 0.41825,-0.3405 0.88476,-0.17695 0.70513,0.41825 -0.0161,3.30313 -0.27079,6.66525 -0.83115,9.92012 -0.34854,0.90889 -0.185,2.0001 -0.54962,2.94117 -0.7668,3.62755 -1.76686,7.31139 -3.22002,10.72177 -0.23594,0.059 -0.36463,0.1555 -0.3834,0.28956 0,0.61397 -0.56303,0.1555 -0.52014,0.61933 0.35123,0 0.4826,0.14478 0.39681,0.43971 -1.7025,4.08869 -3.83399,7.9629 -6.29525,11.65479 l -0.30028,0.23861 c -0.24399,0.75608 -0.84724,1.30302 -1.20114,2.0162 -0.68369,0.59253 -1.05904,1.41563 -1.69982,2.05641 -3.85544,4.82332 -8.51253,9.19889 -13.54766,12.75673 -0.66491,0.0616 -1.57649,1.60062 -2.28162,1.16896 0.0644,0.25471 -0.0242,0.43434 -0.26811,0.53891 -0.77485,0.46919 -1.53897,0.95715 -2.30576,1.43707 -0.12602,-0.0214 -0.24934,-0.0537 -0.36999,-0.0912 0.005,0.54159 -0.55499,0.73999 -0.83919,0.2413 -0.22253,0.26275 -0.19304,0.69441 -0.53622,0.80434 -6.02714,3.30849 -12.92296,5.73489 -19.69545,6.98161 -0.20108,-0.12601 -0.41289,-0.22253 -0.63006,-0.29224 l -0.0965,0.41825 c -1.71591,0.27348 -3.41037,0.55767 -5.15041,0.65688 -1.2494,0.0537 -2.58995,0.32709 -3.82863,0.20108 l -0.0938,-0.43434 -0.23325,-0.0241 c 0.0858,0.12869 0.13405,0.27615 0.15014,0.4397 l -0.27079,0.0965 c -1.70251,0.0322 -3.41574,0.0536 -5.11556,-0.0644 -0.36195,-0.0724 -0.54695,-0.39949 -0.89014,-0.46384 0.0402,0.35928 -0.10724,0.49601 -0.43969,0.40754 -0.8955,-0.067 -1.8044,-0.11529 -2.69721,-0.20645 -0.76947,-0.26007 -1.53359,-0.0644 -2.26017,-0.4263 -1.41831,0.003 -2.88219,-0.41556 -4.292459,-0.61129 -1.118023,-0.40485 -2.614083,-0.44774 -3.632906,-1.00542 -1.938443,-0.27078 -3.783047,-1.07244 -5.627652,-1.69445 -0.479918,-0.31638 -1.656927,-0.25471 -1.498741,-1.02955 -0.206446,0.0885 -0.415572,0.17159 -0.622017,0.2547 -0.563034,-0.30565 -1.160922,-0.52013 -1.73736,-0.78556 -0.171592,-0.20377 -0.402167,-0.30565 -0.691727,-0.30297 -3.085959,-1.44512 -6.083442,-3.02697 -8.922738,-4.9118 -0.07775,-0.25202 0.09384,-0.38608 0.512092,-0.40484 -0.09116,-0.10189 -0.182316,-0.20376 -0.270792,-0.30565 -0.219851,0.20645 -0.329777,0.49869 -0.686365,0.40217 -0.756073,-0.53086 -1.528233,-1.04027 -2.281625,-1.57382 l 0.02145,-0.28956 c 0.262748,-0.0616 0.53086,-0.0992 0.804333,-0.11261 -0.418253,-0.0295 -0.804333,0.0831 -1.214543,0.1153 -12.354561,-9.13723 -21.387224,-22.56424 -25.022811,-37.50606 -0.07239,-0.53086 -0.399486,-1.12339 -0.284197,-1.64353 0.176953,-0.12601 0.348544,-0.2547 0.514773,-0.39144 -0.21717,0.059 -0.43434,0.11529 -0.654192,0.16622 -0.53086,-2.23872 -0.876723,-4.43187 -1.069763,-6.72422 -0.03754,-0.49065 -0.439702,-1.31374 0.286879,-1.45852 -0.517454,-0.10189 -0.541584,-0.48528 -0.514773,-0.93303 -1.193094,-14.40293 2.603359,-29.06861 10.504593,-41.15506 4.324633,-6.66792 9.855765,-12.53419 16.242171,-17.26367 0.136737,0.0107 0.26275,0.0456 0.380718,0.10189 -0.01072,-0.31102 0.12065,-0.53623 0.394124,-0.67297 5.860908,-4.2013 12.424268,-7.47493 19.32813,-9.56889 0.383399,-0.0804 1.000054,-0.43701 1.335193,-0.13137 -0.0992,0.33782 -0.152823,0.65419 -0.179634,1.00542 0.576439,-0.64347 0.841869,-0.13137 1.396859,0.003 -0.174273,-0.13406 -0.351226,-0.26543 -0.533542,-0.38876 -0.01609,-0.2976 -0.05094,-0.58985 -0.101882,-0.87941 l 0.163548,-0.21181 c 1.187732,-0.12065 2.037644,-0.74803 3.25755,-0.72657 0.254706,0.0563 0.479919,-0.0134 0.681002,-0.20913 2.622124,-0.56572 5.246934,-0.94107 7.922684,-1.12339 l 0.31101,0.0965 c 0.0241,0.16623 0.0456,0.33246 0.067,0.50137 l 0.0616,-0.51478 c 0.54426,-0.18499 1.17164,-0.25738 1.74004,-0.18231 z"
       fill="#010101"
       id="path161"
       style="stroke-width:0.268111" />
    <path
       d="m 98.449825,157.84264 c -0.12065,0.50405 -0.134056,0.89013 0.50673,0.9089 -0.07239,0.21986 -0.128694,0.44238 -0.16623,0.66492 0.47992,0.16354 1.332515,-0.15283 1.756125,-0.44239 0.13406,0.0483 0.26811,0.0992 0.40217,0.14746 0.79361,-0.17963 1.62207,-0.36999 2.43445,-0.42093 0.55767,-0.0644 0.1555,-0.59253 0.6381,-0.55499 0.0295,0.34586 0.16891,0.47992 0.41558,0.41021 8.7994,-1.1073 17.74359,-0.54427 26.26148,1.97062 9.1265,2.60604 17.58005,7.34088 24.69035,13.612 0.43702,0.52013 0.496,-0.14478 0.94912,-0.17696 -0.20377,0.21182 -0.50942,0.31638 -0.39681,0.6676 6.79661,6.18532 12.24732,13.82381 15.86949,22.26395 0.17428,0.31637 0.11798,0.73463 0.59521,0.69977 -0.0483,0.12869 -0.0965,0.26007 -0.14478,0.39144 0.56572,1.27621 0.94911,2.61676 1.47193,3.90638 0.2279,0.31101 0.44775,-0.10456 0.71318,0.0858 0.1421,0.0242 0.27615,-0.0107 0.40217,-0.1126 l -0.0214,0.26543 c -0.45847,-0.0563 -1.06976,-0.27348 -0.94107,0.47187 0.19572,0.10725 0.41021,0.13138 0.63811,0.0724 -0.25203,0.0295 -0.40485,0.16087 -0.46116,0.38877 0.6247,1.85265 1.05636,3.775 1.47462,5.68664 0.13137,0.15282 0.34854,0.18231 0.64882,0.0858 -0.23594,0.1984 -0.46919,0.32442 -0.48796,0.67028 0.37267,1.58989 0.60325,3.21197 0.75339,4.8394 0.45579,2.9251 0.53086,5.90113 0.48796,8.86644 0.0992,0.30833 0.35659,0.43702 0.58449,0.6381 l -0.47724,0.0965 c 0.0375,0.16623 0.10456,0.31637 0.1984,0.45311 l -0.35391,0.10188 c -0.0402,1.39686 -0.16622,2.78567 -0.25202,4.17986 -0.30297,1.362 -0.31637,2.79639 -0.58448,4.16644 -0.37267,1.4049 -0.52014,2.87683 -0.90086,4.28441 -1.04563,4.4292 -2.7669,9.06753 -4.76701,13.14013 -0.10992,0.31101 -0.37268,0.61397 -0.12333,0.93303 -0.47456,-0.19036 -0.8231,0.82846 -0.88209,1.177 0.32174,0.16087 0.73999,0.0429 0.69709,0.52551 -0.24666,0.0295 -0.49869,-0.0858 -0.75607,-0.34587 -0.5684,0.49869 -0.82847,1.39418 -1.28157,2.01888 -0.32173,0.39144 0.0536,0.64347 -0.50405,0.85527 -3.29777,5.33005 -7.16125,10.00591 -11.83175,14.19916 -0.10992,0.1716 -0.16891,0.37 -0.18231,0.59521 -0.50405,-0.0697 -0.73999,0.24934 -1.10462,0.52282 -2.77495,2.38887 -5.79656,4.52035 -8.9415,6.38909 0.0295,0.12333 0.0724,0.2413 0.12869,0.35926 -0.76143,-0.19035 -1.14484,0.27348 -1.76417,0.58717 -2.13149,1.15556 -4.31659,2.23604 -6.56336,3.14494 -1.0081,0.50942 -2.10199,0.69709 -3.06719,1.2923 -0.86332,0.0616 -1.58454,0.50405 -2.41837,0.71049 -2.38887,0.67028 -4.7965,1.34056 -7.24167,1.76686 -0.33246,0.0831 -0.89281,0.0509 -1.09658,0.36731 -0.28152,0.38876 -0.45579,0.12333 -0.76412,-0.0563 -6.02177,0.92766 -12.24731,1.03222 -18.28249,0.18232 -0.15283,0.067 -0.27884,0.16086 -0.37536,0.28419 -0.22521,-0.52549 -1.37809,-0.54962 -1.85265,-0.49332 -0.059,0.33782 0.0134,0.62202 -0.31637,0.8231 -0.0241,-0.3405 0.12065,-0.60593 0.18232,-0.93035 -2.158297,-0.49868 -4.354127,-0.79092 -6.466843,-1.48265 -0.126012,0.0723 -0.252024,0.14746 -0.378036,0.21985 l -0.112607,-0.34586 c -4.075289,-1.18237 -8.043333,-2.76959 -11.804932,-4.72144 -0.2413,-0.12333 -0.447746,-0.21181 -0.691727,-0.0268 0.05898,-0.24935 -0.0429,-0.42094 -0.305647,-0.5121 -9.383889,-5.11556 -17.459396,-12.53419 -23.239871,-21.52932 -0.123331,-0.22522 -0.311009,-0.39144 -0.557671,-0.49869 0.01072,-0.25739 -0.05094,-0.47991 -0.187678,-0.6676 -0.45847,0.0912 -0.284197,0.26543 -0.654191,-0.0938 0.150142,-0.0885 0.268111,-0.21986 0.353907,-0.38877 -2.552418,-4.23615 -4.63296,-8.73506 -6.145107,-13.44308 -4.547165,-13.99273 -4.061883,-29.49759 1.386134,-43.1659 2.571186,-6.56871 6.31938,-12.68969 10.87995,-18.06532 6.107571,-7.17733 13.796997,-12.86934 22.352423,-16.80788 0.533541,-0.19573 0.474557,-0.44775 0.388761,-0.93839 l 0.270792,-0.005 c -0.05898,0.46651 0.07775,0.63274 0.402167,0.50136 1.166283,-0.56571 2.488071,-0.88208 3.608775,-1.55772 0.804334,-0.0938 1.573813,-0.44238 2.351335,-0.67296 0.364631,-0.48528 -0.321733,-0.86868 0.38608,-1.23063 -0.0027,0.4263 -0.632742,0.88477 0.09384,1.0644 0.86868,-0.43434 2.029601,-0.45579 2.984076,-0.81505 0.292242,-0.0268 0.418254,-0.19037 0.380718,-0.48797 0.126012,0.0965 0.252025,0.19304 0.378037,0.28688 0.471875,-0.16355 1.166283,0.0188 1.050995,-0.7239 -0.351225,-0.3271 -0.33782,-0.77752 -0.790927,-0.97861 -0.568396,-0.38339 0.252024,-0.25202 0.471875,-0.24934 z"
       fill="#edecea"
       id="path163"
       style="fill:#ffffff;stroke-width:0.268111" />
    <path
       d="m 112.77232,158.96871 c 0.51746,0.20377 0.4397,0.63542 0.39412,1.08585 l 0.26812,0.0241 c -0.0938,-0.14747 -0.15283,-0.30834 -0.17964,-0.49065 0.85796,-0.0161 0.0375,-0.5818 0.82578,-0.60861 5.84751,0.15014 11.91486,1.04027 17.49693,2.81517 0.17695,0.14745 0.19841,0.37803 0.067,0.69172 0.19036,-0.27884 0.2842,-0.47992 0.67296,-0.4531 9.30346,3.01088 17.84815,8.18275 24.80564,15.06247 -0.059,0.16087 -0.15283,0.28956 -0.28152,0.38341 0.40753,-0.10457 0.5389,0.25202 0.96252,0.2976 7.33552,7.38646 12.60927,16.42985 15.60943,26.39554 -0.0644,0.12601 -0.13138,0.2547 -0.19572,0.38339 l 0.31905,0.1716 c 0.47188,1.21455 0.61666,2.48807 0.97325,3.73211 -0.0778,0.20376 -0.15551,0.40752 -0.23863,0.61129 0.30565,-0.0161 0.46652,0.12601 0.47993,0.42898 0.68368,3.57124 1.0778,7.14784 1.19041,10.78343 -0.3834,0.55499 -0.35391,0.16891 0.0134,0.71586 0,1.18772 -0.0268,2.37546 -0.0349,3.56319 -0.3834,0.49332 -0.37804,0.23594 -0.0241,0.74534 -0.13406,0.70782 0.0268,1.50947 -0.23058,2.17439 -0.31369,0.2842 -0.80969,-0.28956 -1.23331,-0.21449 -0.32441,0.46115 -0.61397,0.70781 -0.98396,0.0992 -0.43703,0.29492 0.14209,0.57376 -0.44507,0.78289 0.32977,-0.0429 0.65687,-0.0563 0.98665,-0.0429 0.36999,-0.78021 1.63279,-0.81506 1.70518,0.15014 -0.30296,2.57655 -0.65151,5.01904 -1.2199,7.55001 -0.0242,0.29492 -0.17696,0.4263 -0.45847,0.39144 0.10992,0.10725 0.20377,0.2279 0.27883,0.36464 -0.41557,1.83655 -0.99469,3.6195 -1.53627,5.41852 l -0.23326,0.23057 c -0.16623,-0.11796 -0.30565,-0.2547 -0.42362,-0.41021 0.0349,0.45043 0.59253,0.43702 0.35123,0.96789 -0.13406,0.45846 -0.27615,0.90889 -0.48796,1.34055 -0.3405,-0.0644 -0.74535,-0.0456 -0.91694,-0.41289 -0.0885,0.0885 -0.17964,0.17427 -0.26811,0.26007 0.34318,-0.0858 0.65151,0.31101 1.00274,0.35927 l 0.0161,0.30832 c -0.34855,0.65151 -0.45579,1.50411 -0.9518,2.04838 -0.0938,0.35122 -0.16086,0.69977 -0.32441,1.03222 -2.11807,4.70803 -4.78846,9.15868 -7.98166,13.21788 -0.0992,0.18768 -0.29761,0.2547 -0.59253,0.20377 0.067,0.11528 0.10724,0.24397 0.12333,0.38339 -4.30587,5.34078 -9.48577,10.00859 -15.27161,13.69512 -0.56572,0.4826 -0.5255,-0.15283 -0.97324,-0.17428 0.0804,0.21986 0.13941,0.43971 0.17159,0.66224 -7.1532,4.45601 -15.26893,7.40791 -23.5911,8.67339 -0.68905,0.16355 -1.36469,0.0188 -2.01351,0.31102 -2.01352,0.19839 -4.00827,0.32977 -6.02982,0.37803 -0.31906,0.0616 -0.53891,-0.0429 -0.6676,-0.32173 -0.16087,0.52013 -1.19578,0.50404 -1.10194,-0.12065 0.0214,-0.13674 -0.0644,-0.20913 -0.26006,-0.22254 l 0.0242,0.58717 c -2.54169,0.17963 -5.42925,-0.17696 -7.96826,-0.43166 -0.0912,-0.18231 -0.11797,-0.3834 -0.0777,-0.60593 -0.0349,0.26275 -0.15819,0.44238 -0.37536,0.54158 -0.39948,-0.17427 -1.10193,0.0616 -1.01077,-0.58448 -0.36195,0.0885 -0.46384,0.44774 -0.90086,0.27348 -0.33514,-0.0965 -0.8794,-0.0616 -1.09925,-0.35928 -0.18232,-0.30564 -0.50941,-0.0214 -0.7668,0 -4.742887,-0.97056 -9.324905,-2.50147 -13.738015,-4.49354 -0.273473,-0.067 -0.38876,-0.23326 -0.345863,-0.496 -0.372674,0.28687 -0.954476,-0.185 -1.329831,-0.30029 -1.916995,-0.9786 -3.815221,-2.03764 -5.635696,-3.19052 -0.21717,-0.0751 -0.297603,-0.27347 -0.2413,-0.58716 -0.622017,0.1984 -0.903534,-0.17964 -1.383453,-0.47456 -0.504049,-0.21181 0.03217,-0.47724 0.02681,-0.81237 l -0.268111,-0.0188 c 0.06971,0.68637 -0.33782,0.42899 -0.689046,0.19304 -5.98424,-4.2147 -11.209726,-9.45896 -15.421751,-15.4432 -0.179635,-0.38608 -0.359269,-0.64346 -0.646148,-0.94911 -2.069818,-3.05378 -3.839351,-6.29257 -5.346135,-9.65736 -0.335139,-0.41289 0.158185,-0.69172 0.107244,-1.20382 -0.123331,0.0885 -0.262749,0.15282 -0.415573,0.19036 -0.36463,-0.35927 -0.471875,-0.97324 -0.721218,-1.42099 -2.715966,-6.98161 -4.281735,-14.45923 -4.354125,-21.9583 -0.233257,-9.92011 1.992066,-19.83486 6.340828,-28.74687 3.863481,-7.98703 9.456279,-15.07321 16.247534,-20.77325 0.369993,-0.43702 0.957156,-0.23594 1.147515,0.26275 -0.01341,-0.13137 -0.02681,-0.26275 -0.04022,-0.39413 -0.182316,-0.0965 -0.335139,-0.23057 -0.455789,-0.3968 1.155559,-0.95715 2.359378,-1.85265 3.584646,-2.71597 0.21717,-0.0965 0.356587,0.0188 0.418253,0.34855 0.592526,0.11529 0.01072,-0.65687 0.345864,-0.89549 2.683792,-1.7883 5.458742,-3.39965 8.367747,-4.79383 0.726582,-0.32441 1.560407,-0.90622 2.370103,-0.82578 0.412891,-0.55499 1.005416,-0.64347 1.611347,-0.88209 3.056467,-1.21186 6.220178,-2.20387 9.437512,-2.89024 0.150142,0.10189 0.26543,0.2279 0.348544,0.37804 -0.06971,-0.34586 0.05898,-0.5255 0.38608,-0.53622 0.734627,-0.17159 1.643527,-0.46383 2.386197,-0.34586 0.28956,0.31905 -0.15015,0.48796 -0.38876,0.60861 0.37535,0.11797 0.95983,0.20108 0.80433,0.7373 -0.27616,0.067 -0.78557,0.0563 -0.75339,0.4692 0.0322,0.31101 0.0429,0.61933 0.0268,0.93034 0.0804,0.0992 0.16087,0.19841 0.2413,0.29761 -0.0241,-0.41826 -0.5255,-0.88477 0.22521,-0.86868 -0.0804,-0.2708 -0.059,-0.51746 0.067,-0.73731 0.27347,-0.0456 0.8794,-0.11529 0.72121,-0.54158 -0.2976,-0.31101 -0.81773,-0.55499 -0.44506,-1.04296 3.26291,-0.6944 6.68937,-0.78288 10.01931,-0.86599 z"
       fill="#010101"
       id="path165"
       style="stroke-width:0.268111" />
    <path
       d="m 106.58968,163.0735 c 0.57912,-0.0402 0.84186,0.64882 0.44774,1.03759 -0.5818,0.20644 -1.13411,0.38608 -1.58454,0.83382 -0.54426,0.5255 -0.63542,1.15824 -0.84722,1.84192 -0.23594,0.22521 -0.57376,0.31101 -0.83651,0.50405 0.0349,-1.32983 -2.37278,-1.6462 -3.04842,-0.64614 -0.34587,0.45847 -1.115347,0.0456 -1.00274,-0.48797 0.278835,-0.77752 1.19309,-1.10194 1.93308,-1.25744 0.0858,-0.19572 0.16891,-0.39412 0.24934,-0.59253 0.16355,0.39413 0.067,0.57376 0.53355,0.28956 0.13673,0.79093 0.77483,0.43434 0.80433,-0.20108 0.0751,0.41558 0,0.97324 0.61397,0.84723 0.50673,-1.02686 1.55505,-2.04569 2.73742,-2.16901 z"
       fill="#edecea"
       id="path167"
       style="fill:#ffffff;stroke-width:0.268111" />
    <path
       d="m 107.99726,166.97719 c 0.19304,-0.0322 0.23862,0.0912 0.13942,0.36463 -0.21181,0.0349 -0.25739,-0.0858 -0.13942,-0.36463 z"
       fill="#edecea"
       id="path169"
       style="fill:#ffffff;stroke-width:0.268111" />
    <path
       d="m 113.02435,167.42494 c 0.30564,1.19041 0.61397,2.35937 1.12874,3.48276 0.11797,0.18231 0.3405,0.21985 0.67028,0.11261 -0.0804,0.22789 -0.16623,0.4531 -0.25739,0.67295 0.84724,1.28694 1.93577,2.32453 3.55248,2.40765 0.81774,0.17963 0.87135,1.49873 -0.003,1.62743 -2.18779,-0.0509 -3.96805,-1.52556 -4.98955,-3.37284 0.0697,1.13947 0.67296,2.29771 1.06708,3.36212 0.79629,1.67301 2.06982,3.44522 3.93587,3.97876 0.50405,0.23058 1.10998,0.0724 1.55237,0.38072 0.53086,0.35927 0.46919,1.37273 -0.23058,1.48265 -1.94917,0.067 -3.91442,-1.11534 -5.12628,-2.58995 -0.58181,-0.6247 -0.9223,-1.44243 -1.46389,-2.06446 0.8231,2.75887 1.8875,5.54186 3.99485,7.60095 1.14752,1.18774 2.60337,1.98403 4.21739,2.32185 0.47992,0.0804 1.07781,0.0242 1.50411,0.26543 0.5389,0.47188 0.37535,1.49069 -0.43703,1.47997 -3.3353,-0.10188 -6.27916,-2.03496 -8.07282,-4.79383 -0.56572,-0.54426 -0.59521,-1.35128 -1.19846,-1.78829 0.0134,0.43434 0,0.84455 0.18232,1.25207 0.8097,2.66771 2.14221,5.12629 4.10746,7.12104 1.83924,1.81242 4.21471,2.99747 6.85828,2.62212 0.7668,-0.21449 1.38077,0.53622 1.09121,1.2494 -0.27615,0.52818 -0.87135,0.35123 -1.362,0.43434 -1.39686,0.12601 -2.73205,-0.17696 -4.03239,-0.65956 -2.84198,-1.19845 -5.13433,-3.66239 -6.58213,-6.34082 -0.0778,-0.10725 -0.16087,-0.20913 -0.25202,-0.30565 0.0295,0.53354 -0.0616,1.0081 0.16087,1.50946 0.72657,2.42373 1.76416,4.80187 3.48544,6.69206 1.43708,1.60062 3.44523,2.65162 5.61157,2.74546 1.03759,0 0.94643,1.69982 0.008,1.69714 -1.51215,-0.19572 -2.9519,-0.49868 -4.29245,-1.26012 -2.06983,-1.14216 -3.52835,-2.95727 -4.63833,-5.00563 l -0.21717,-0.0429 -0.0965,0.24935 c 0.005,2.95994 0.0134,5.91721 -0.003,8.87716 -0.0242,0.29224 0.15283,0.43434 0.53086,0.42361 l -0.003,0.19036 c -0.77216,-0.0912 -0.45043,0.65419 -0.53354,1.12875 -0.26811,0.6676 -0.75876,0.61397 -1.37005,0.54695 -0.18232,-0.31638 -0.26811,-0.63811 -0.25739,-0.96252 0.0241,-3.45327 -0.0349,-6.91191 0.0322,-10.3625 -0.3405,0.15283 -0.4263,0.46652 -0.61934,0.75876 -1.3191,2.21191 -3.20124,4.0163 -5.67055,4.86621 -1.87141,0.92499 -4.13695,0.56572 -5.922569,-0.3968 -2.110034,-1.14752 -3.509574,-2.93314 -4.724118,-4.95469 -0.08312,0.44238 0.190359,0.93034 0.300285,1.362 0.65151,2.20119 1.790982,4.60615 3.603413,6.08344 1.016141,0.82578 2.201189,1.2494 3.496169,1.37005 0.86064,-0.0322 1.13679,1.35664 0.27615,1.62475 -2.984072,0.10457 -5.533809,-1.89018 -7.048637,-4.32195 -0.184996,-0.22789 -0.356588,-0.76948 -0.667596,-0.80969 0.01072,3.02161 0.02413,6.05663 -0.0054,9.07824 -0.174272,0.79897 -1.4478,0.79897 -1.600624,-0.0242 -0.06702,-2.65698 -0.01609,-5.36222 -0.02681,-8.02725 0.01341,-0.26543 -0.02413,-0.50941 -0.109926,-0.7373 -0.445064,0.50673 -0.836506,1.34055 -1.42367,1.9304 -1.42635,1.72395 -3.76428,3.00284 -6.024456,2.90364 -0.77216,-0.22253 -0.522817,-1.08585 -0.123331,-1.54164 0.89281,-0.17695 1.745403,-0.14478 2.565823,-0.60593 2.431768,-1.11802 3.756237,-3.60073 4.673177,-5.98424 0.201083,-0.68368 0.517454,-1.3191 0.522817,-2.01083 -0.343183,-0.0188 -0.319053,0.32709 -0.496006,0.56303 -1.648884,2.67575 -4.375574,5.01636 -7.67066,5.0244 -0.53354,-0.0537 -1.455843,0.0724 -1.801706,-0.41289 -0.278835,-0.67296 0.254706,-1.42367 0.997373,-1.27621 1.64084,0.23326 3.276318,-0.28152 4.565933,-1.30302 1.804387,-1.42903 3.075234,-3.5632 3.90906,-5.67859 0.12333,-0.44774 0.487962,-1.0644 0.300284,-1.52287 -0.286878,0.20645 -0.423615,0.73194 -0.686364,1.01078 -1.536277,2.21727 -3.973407,3.94391 -6.759081,3.83667 -0.823102,-0.19841 -0.597889,-1.70519 0.278835,-1.6194 1.841923,-0.10724 3.455952,-1.04294 4.611512,-2.45589 1.118023,-1.35396 2.072498,-3.34603 2.520244,-5.03781 -0.670278,0.80165 -1.25208,1.62207 -2.163657,2.18779 -0.860637,0.51477 -1.951849,1.00809 -2.973353,0.81238 -0.764116,-0.4129 -0.423615,-1.58723 0.426297,-1.62476 1.370049,-0.0831 2.410319,-0.95448 3.150306,-2.04837 0.667597,-1.09121 1.252079,-2.35937 1.557726,-3.60341 -0.576439,0.58448 -1.01346,1.23599 -1.782939,1.66765 -0.788247,0.30296 -1.402221,0.68368 -2.28967,0.5255 -0.721218,-0.37536 -0.48528,-1.46389 0.28688,-1.61135 0.721219,-0.0804 1.345917,-0.33246 1.85801,-0.8526 1.292296,-1.26548 1.852647,-3.35138 2.1717,-5.07534 0.38876,-0.51745 1.227949,-0.54695 1.603304,0.003 0.335139,1.3486 0.573758,2.62749 1.286933,3.8474 0.589845,1.08316 1.455843,1.97061 2.748139,2.07518 0.871361,0.11796 1.050996,1.49606 0.123331,1.65156 -1.434394,0.0214 -2.812485,-0.87136 -3.651673,-1.99743 -0.152824,0.4263 0.190359,0.97593 0.311009,1.38614 0.611293,1.47729 1.522871,3.16907 3.08864,3.79913 0.589844,0.27884 1.466567,0.0697 1.804386,0.67564 0.38876,0.48796 0.0697,1.09389 -0.482599,1.23063 -1.107298,0.0188 -2.236046,-0.44506 -3.120813,-1.09389 -0.780203,-0.52818 -1.209181,-1.31107 -1.860691,-1.95185 0.60325,1.93308 1.512147,3.96536 2.91973,5.45606 1.30302,1.37005 3.102043,2.21728 5.019043,2.00547 2.13684,-0.40753 4.07529,-1.75613 5.37294,-3.46668 0.9947,-0.98128 1.69447,-2.33792 2.33793,-3.56855 0.49065,-1.24136 1.13411,-2.26286 1.0081,-3.64363 -0.75875,1.04563 -1.362,2.17438 -2.25481,3.13958 l -0.0295,0.26543 c 0.13942,0.0429 0.27884,0.0858 0.41826,0.12869 -0.91694,-0.28152 -1.14216,0.44238 -1.8178,0.85796 -1.57381,1.16896 -3.59537,1.95453 -5.57135,1.9009 -0.88744,-0.24398 -0.65687,-1.63816 0.26275,-1.63011 2.06714,-0.11797 3.98145,-1.09121 5.39708,-2.58459 1.78025,-1.88482 2.92509,-4.43456 3.6195,-6.90118 l -0.28152,0.0375 c -0.98665,1.89288 -2.68111,3.33799 -4.71876,3.97073 -0.53353,-0.0134 -1.43975,0.35123 -1.81779,-0.13673 -0.45847,-0.52014 -0.0322,-1.32715 0.60862,-1.40491 1.17432,-0.0804 2.15561,-0.52282 3.02697,-1.29765 1.7749,-1.65961 2.43981,-3.76965 3.16103,-6.00301 -0.38072,-0.003 -0.36731,0.29492 -0.57376,0.54963 -1.0081,1.4478 -2.6114,2.49075 -4.3997,2.57119 -0.70514,-0.005 -0.87405,-0.8526 -0.5255,-1.34324 0.16355,-0.32173 0.74535,-0.31101 1.05636,-0.3834 1.39686,-0.22789 2.47466,-1.4773 3.11545,-2.66235 0.23058,-0.50405 0.58716,-0.95983 0.53086,-1.52555 0.50405,-0.71854 0.681,-1.67837 0.80433,-2.53096 0.36999,-0.65956 1.54432,-0.6676 1.72664,0.13941 z"
       fill="#edecea"
       id="path171"
       style="fill:#ffffff;stroke-width:0.268111" />
    <path
       d="m 84.438338,167.78957 c 0.06435,0.0724 0.06435,0.0724 0,0 z"
       fill="#edecea"
       id="path173"
       style="fill:#ffffff;stroke-width:0.268111" />
    <path
       d="m 128.57479,168.79498 c 0.31101,-0.003 0.50405,0.16355 0.5818,0.50137 0.0751,0.58716 -0.29761,0.54427 -0.72122,0.68905 -0.81237,0.23058 -1.48801,0.92766 -1.81779,1.6891 -0.16087,0.31101 -0.21449,0.57912 -0.58716,0.70245 -0.41558,0.0858 -0.57912,-0.32442 -0.75072,-0.61665 -0.32173,-0.70246 -1.11534,-1.03759 -1.80975,-1.23868 -0.42093,-0.10456 -1.22794,0.067 -1.41563,-0.41021 -0.10456,-0.25203 -0.0483,-0.49601 0.16356,-0.73194 0.53621,-0.19036 1.24135,0.0563 1.79902,0.11528 0.78289,0.13138 1.22795,0.6676 1.87409,1.02419 0.74803,-0.84187 1.4773,-1.64352 2.6838,-1.72396 z"
       fill="#edecea"
       id="path175"
       style="fill:#ffffff;stroke-width:0.268111" />
    <path
       d="m 124.82123,181.07715 c 0.71854,0.28152 1.38345,0.77216 1.88483,1.35933 0.24934,0.25471 0.3673,0.57912 0.7802,0.56035 0.83919,-0.42898 1.75076,-0.64883 2.69452,-0.53354 0.37535,0.0831 0.39143,0.69977 0.18231,0.95984 -0.37267,0.17695 -0.84455,0.13674 -1.24672,0.21448 -0.70513,0.11261 -1.26548,0.45579 -1.8741,0.79629 -0.5094,0.17696 -0.72121,-0.16354 -0.92498,-0.55767 -0.37267,-0.67296 -0.94107,-1.21454 -1.61134,-1.58721 -0.30565,-0.19573 -0.65956,-0.22521 -0.69173,-0.65688 0.067,-0.40216 0.39949,-0.63542 0.80701,-0.55499 z"
       fill="#edecea"
       id="path177"
       style="fill:#ffffff;stroke-width:0.268111" />
    <path
       d="m 99.723352,181.47396 c 0.05363,0.0537 0.05363,0.0537 0,0 z"
       fill="#edecea"
       id="path179"
       style="fill:#ffffff;stroke-width:0.268111" />
    <path
       d="m 135.55372,182.16837 c 0.27883,1.20381 0.65419,2.44517 1.25744,3.52566 0.56571,1.14752 1.49338,2.19315 2.76154,2.54706 0.34319,0.10187 0.84455,0.0483 1.12071,0.28956 0.50405,0.39948 0.41021,1.39685 -0.31905,1.46656 -1.32983,0.0322 -2.64358,-0.65687 -3.57392,-1.57917 -0.42898,-0.40485 -0.70513,-0.92767 -1.1502,-1.32179 0.37804,1.2494 0.80165,2.56851 1.53092,3.65971 0.1421,-0.0295 0.27883,-0.0804 0.41021,-0.15282 -0.0537,0.21449 -0.10189,0.43166 -0.14211,0.65151 0.91694,1.33788 2.20388,2.35402 3.8608,2.52561 0.6676,0.0778 0.94912,0.29224 0.91427,0.99201 -0.059,0.866 -1.02955,0.60057 -1.61404,0.57912 -0.0375,0.1287 -0.0751,0.26007 -0.1126,0.39144 -0.0107,-0.33513 -0.13942,-0.51209 -0.3834,-0.52817 -1.97866,-0.53891 -3.50421,-2.06983 -4.46673,-3.82863 -0.0375,0.51477 0.22521,1.0215 0.38876,1.52019 0.40485,0.91425 0.74267,1.84192 1.28694,2.68915 1.2628,2.27359 3.3487,4.18253 5.99228,4.57398 0.51209,0.11528 1.08585,-0.0402 1.43171,0.42897 0.39681,0.47188 0.0804,1.4478 -0.62202,1.30839 -0.34318,-0.0456 -0.58448,0.15014 -0.90085,0.24666 l -0.15283,-0.34855 c -3.30312,-0.49868 -6.00032,-2.8527 -7.42131,-5.81533 l -0.24666,-0.0375 c 0.0402,0.87672 0.49869,1.73199 0.77752,2.55778 1.1931,2.69719 2.91973,5.15577 5.54454,6.61698 1.1207,0.50941 2.20387,0.91158 3.464,0.82578 1.42902,-0.61665 2.59531,-1.6328 3.53102,-2.86343 0.47991,-0.65151 1.06708,-1.53895 1.19577,-2.33524 -1.6596,2.23336 -4.21202,3.54711 -6.9977,3.51761 -0.65955,-0.49064 -0.49869,-1.6596 0.39949,-1.66229 2.87951,-0.0724 5.31128,-2.23336 6.33815,-4.80187 -0.84188,0.70246 -1.62476,1.3781 -2.71865,1.67302 -0.61934,0.16355 -1.61939,0.49332 -2.13953,-0.0188 -0.23325,-0.60593 -0.0214,-1.26548 0.67296,-1.37005 1.94649,-0.059 3.6195,-1.74272 4.18522,-3.49885 -0.58985,0.40485 -1.04564,0.89549 -1.76686,1.07513 -0.54426,0.17695 -1.57917,0.54158 -2.02155,0.0509 -0.0644,-0.45579 -0.56572,-0.77216 -0.79362,-0.21985 0.003,0.49332 -0.69172,1.13947 0.2708,1.0349 l -0.0107,0.23326 c -0.2976,-0.003 -0.80165,0.0322 -0.79897,-0.38608 0.0456,-0.13137 0.16087,-0.24934 0.3405,-0.34854 0.30029,-0.5389 -0.0375,-0.69173 -0.11261,-1.15824 0.3271,0.0778 0.54159,0.42897 0.89013,0.17963 0.31906,-0.37804 0.2708,-0.75071 0.88209,-0.74266 2.01351,-0.13138 3.21465,-2.33257 3.57124,-4.09138 0.20109,-0.74803 1.51215,-0.78288 1.70519,0.0188 0.27615,0.53623 0.27615,1.71055 1.05099,1.70251 -0.0724,0.13406 -0.14209,0.26811 -0.21448,0.40217 0.65955,1.03491 1.44243,1.84729 2.73473,1.9572 0.95179,-0.0751 1.24672,1.49875 0.27615,1.6623 -1.3486,0.0322 -2.35402,-0.59789 -3.39429,-1.36469 0.56036,1.38614 1.66765,2.79103 3.12886,3.29776 0.60593,0.22522 1.30034,0.0349 1.69714,0.53891 0.39681,0.5389 0.0912,1.3486 -0.63274,1.30302 -1.4478,-0.0724 -3.01356,-0.68904 -3.92246,-1.85533 l -0.26543,-0.0751 c 1.06976,2.33524 2.909,4.26564 5.52845,4.70535 0.52014,0.12869 1.15556,-0.0429 1.49338,0.40752 0.28687,0.48797 0.21717,1.18506 -0.4129,1.33519 -1.32715,0.0161 -2.57386,-0.32977 -3.775,-0.87403 -1.26548,-0.62738 -2.18242,-1.58723 -3.10473,-2.62481 1.16897,3.42378 4.74021,6.22553 8.48036,5.75634 0.89281,0.003 1.12875,1.31911 0.22253,1.58454 -1.26012,0.24934 -2.64626,0.10724 -3.85543,-0.31906 -2.03765,-0.64078 -3.45596,-1.99474 -4.84746,-3.54174 0.0268,0.67564 0.48797,1.38077 0.81775,1.95453 1.06707,1.81779 2.84197,3.34066 4.97613,3.65972 0.44507,0.10456 0.94376,-0.0134 1.30302,0.25202 0.5684,0.36999 0.4692,1.36469 -0.23057,1.50142 -2.33793,0.0107 -4.70267,-1.05635 -6.24431,-2.81516 -0.31369,-0.33782 -0.54426,-0.73731 -0.87672,-1.05368 -0.0241,2.07786 0.0107,4.15572 -0.008,6.23358 2.92509,0.70782 5.83677,1.41026 8.74042,2.25482 0.33782,0.10456 0.68368,0.16623 0.88476,0.48796 0.38341,0.5818 -0.18231,1.46389 -0.88744,1.23599 -1.26013,-0.31905 -2.4988,-0.72658 -3.76428,-1.02419 l -0.27884,0.0751 c -0.0402,0.14747 -0.0804,0.29493 -0.12065,0.44238 0.0778,-0.27347 0.0563,-0.496 -0.067,-0.67027 -4.28442,-1.06976 -8.56615,-1.99475 -12.92027,-2.74545 -0.92231,-0.22522 -0.58181,-1.54701 0.26006,-1.59795 1.48265,0.14746 2.94654,0.54158 4.42116,0.75875 0.63005,0.0992 1.36736,0.44238 1.99474,0.33782 0.13405,-1.13679 0.0295,-2.32452 0.059,-3.47203 -0.0295,-0.60594 0.0831,-1.27085 -0.0697,-1.8607 l -0.17159,0.0349 c -1.61403,2.12344 -4.09138,3.39964 -6.76176,3.36747 -0.88477,-0.26543 -0.63543,-1.6328 0.26811,-1.66228 2.78835,-0.0616 5.04049,-2.00816 6.19873,-4.43188 0.18232,-0.41021 0.5255,-0.80433 0.40216,-1.27353 -0.69977,0.86063 -1.43171,1.65692 -2.35937,2.27895 -0.48797,0.23326 -0.5121,0.79092 -1.01883,0.9652 -0.5952,0.0375 -1.30302,0.10724 -1.7588,0.53354 -1.1368,0.0831 -2.55778,0.4397 -3.74551,0.0188 -0.58449,-0.41825 -0.29761,-0.91157 -0.1287,-1.45584 -2.19851,-1.35933 -4.0726,-3.15835 -5.25766,-5.48556 l -0.24398,-0.0349 c 0.0537,3.48277 0.0456,7.11835 0.0429,10.60916 -0.11797,0.681 -0.76412,0.51209 -1.23063,0.98664 -1.3486,-0.0241 -2.69452,-0.28151 -4.0458,-0.3405 -10.32496,-1.09925 -20.58557,-1.13678 -30.956107,-0.70781 -1.603305,0.21181 -3.246826,0.12333 -4.842087,0.40217 -0.930346,0.0563 -1.879459,0.0751 -2.79908,0.23593 -0.02145,0.28152 0.485281,0.43703 0.678321,0.59253 2.02692,1.11802 4.12623,2.06982 6.289886,2.88756 0.399486,-0.10457 0.442384,-0.60325 0.924984,-0.67832 4.083333,-0.2413 8.389203,-0.38608 12.475213,-0.34855 0.97056,-0.008 1.0215,1.42367 0.14478,1.66497 -3.68117,0 -7.35429,0.0724 -11.03009,0.25203 0.61129,0.35391 1.28693,0.52013 1.93039,0.80701 1.90359,0.73194 3.84472,1.65693 5.7349,2.35938 2.05909,-0.0804 4.11283,0.0751 6.17192,0.0349 0.69977,0.11796 1.45048,-0.0697 2.0591,0.25738 0.31904,0.25739 0.30296,0.58448 0.3968,0.95179 1.11802,-0.71853 2.42372,0.27616 2.72669,1.36737 0.17159,1.00005 -1.18505,1.58722 -1.31911,2.27626 3.98145,0.16891 8.02457,0.85796 11.94167,1.60867 4.8394,1.02955 9.67613,2.45054 14.21793,4.4292 2.97335,1.24403 5.75903,2.83661 8.24174,4.89839 0.19036,0.20108 0.52281,0.44774 0.53086,0.73999 0.0644,0.7239 -0.89013,1.15555 -1.42635,0.69172 -3.26292,-2.84734 -7.10226,-4.52304 -11.09712,-6.06199 -6.32474,-2.36474 -13.04897,-3.7616 -19.74906,-4.4426 0.23861,0.31637 0.64614,0.51477 0.97324,0.7373 1.72127,1.21991 3.38892,2.51221 5.0807,3.77501 2.34865,0.30565 4.19862,0.87136 6.47488,1.47193 2.33257,0.74266 4.72144,1.48265 6.9414,2.52292 3.69458,1.53628 7.27117,3.63827 9.9791,6.62771 2.08859,2.44786 3.73747,5.56867 3.29776,8.88252 -0.42361,3.02697 -2.34328,5.86359 -4.54984,7.90928 -0.4263,0.3271 -0.29224,0.60057 -0.26543,1.05635 -0.0268,-0.2976 -0.15283,-0.46382 -0.38072,-0.50136 -0.79629,0.68636 -1.63816,1.33251 -2.52561,1.89822 -0.32977,0.23058 -0.67564,0.35928 -0.86868,0.73999 l -0.39144,0.0537 c -1.39954,0.77751 -2.82589,1.55504 -4.30854,2.16097 -1.3781,0.37535 -2.62749,1.06976 -3.98682,1.5041 -4.66513,1.71592 -9.71098,2.67307 -14.62814,3.30581 -2.37278,0.44775 -4.68658,0.68637 -7.09958,0.78289 -8.05137,0.4263 -16.242171,-0.10993 -24.13,-1.76686 -7.35965,-1.51214 -14.644229,-4.15036 -20.507819,-8.97368 -0.327095,-0.22789 -0.487962,-0.52549 -0.367312,-0.92766 0.206445,-0.54427 0.946432,-0.77484 1.394178,-0.36731 6.576766,5.41585 14.700532,7.82348 22.952992,9.26324 2.914368,0.3968 5.689321,0.84991 8.595641,0.9357 3.12349,0.32442 6.27112,0.25739 9.41338,0.26543 0.57912,-0.35122 0.41557,-0.42897 1.01346,-0.0295 1.84192,-0.0858 3.68385,-0.19304 5.52041,-0.33782 0.83651,-0.15551 1.62743,-0.10457 2.41568,-0.44775 4.77506,-0.47456 9.55548,-1.42367 14.08924,-3.01625 1.71055,-0.49869 3.24682,-1.36469 4.97614,-1.82852 1.66497,-0.82846 3.34335,-1.59794 4.90108,-2.62749 l 0.0804,-0.28688 -0.46116,-0.0537 c 0.21182,-0.14478 0.31638,-0.32442 0.31369,-0.53622 l 0.19841,-0.005 c -0.0429,0.46919 0.0965,0.64883 0.41557,0.54158 2.30307,-1.61671 4.30854,-3.50689 5.60888,-6.03517 0.90622,-1.72396 1.27622,-3.71335 0.74267,-5.61425 -0.70513,-2.38083 -2.12075,-4.47746 -3.98413,-6.11026 -2.24141,-1.96525 -4.91984,-3.48007 -7.60899,-4.7402 -3.1664,-1.39417 -6.57408,-2.6114 -9.95497,-3.30581 l 0.0322,0.12065 c 2.81785,2.00547 5.74294,3.84204 8.87448,5.32201 0.63006,0.38876 0.40216,1.01077 -0.0509,1.43707 0.17695,0.73194 0.067,1.48802 0.22521,2.20387 0.40486,-0.15818 0.34855,-0.14478 0.76681,-0.0242 0.24665,-0.28152 0.38608,-0.56035 0.80701,-0.58717 0.59253,-0.0456 0.61397,0.55499 1.23867,0.46652 -0.0188,0.32977 -0.32173,0.35927 -0.41289,0.64883 -0.0724,0.27615 -0.20645,0.496 -0.40485,0.65687 -0.185,-0.005 -0.37267,-0.0107 -0.56035,-0.0107 -0.34855,-0.27079 -0.55499,-0.496 -0.69977,-0.9223 -0.25738,0.0214 -0.50405,0.0992 -0.74535,0.2279 0.0724,1.26012 0.0429,2.71328 0.43702,3.91173 0.5684,0.40754 0.59789,-0.25202 1.05636,-0.28956 -0.25738,0.19841 -0.36463,0.40486 -0.32173,0.62203 -0.23326,-0.0778 -0.46651,-0.15283 -0.70246,-0.22254 -0.11528,0.24935 -0.13405,0.53354 -0.0563,0.85527 0.13674,1.83388 0.27079,3.68654 -0.0188,5.50701 0.34586,0.0241 0.47724,-0.44775 0.69977,-0.66492 1.12607,-1.42367 1.73468,-3.30312 1.22795,-5.09411 -0.11529,-0.46919 -0.41557,-0.88476 -0.47188,-1.362 0.0214,-0.67296 0.93035,-1.11534 1.40759,-0.58985 0.47455,0.73999 0.76143,1.69714 0.91962,2.56047 l 0.35927,0.16891 c 0.15014,-0.13138 0.29492,-0.26543 0.43434,-0.41021 -0.0429,0.47991 -0.35659,0.50136 -0.75339,0.60325 -0.12602,0.36999 -0.0724,0.70781 0.15818,1.01346 -0.34855,0.30564 -0.32709,0.78288 -0.47724,1.20381 -0.61665,2.1583 -2.08322,3.86349 -3.88761,5.14773 -0.49601,0.8955 -0.62738,1.85534 -1.32983,2.64626 -0.80969,1.13948 -1.89287,1.92504 -3.26023,2.26018 -1.02955,-0.16355 -1.77758,-0.75071 -2.69184,-1.18773 -5.95742,2.0296 -11.94971,3.01893 -18.22083,3.35138 -7.5795,0.43434 -15.167044,-0.14209 -22.540099,-1.9438 -4.043116,-1.00006 -7.949495,-2.39691 -11.43762,-4.71339 -1.946487,-1.31106 -3.903699,-3.24146 -4.565933,-5.5499 -0.324414,-0.93303 1.222587,-1.38614 1.541639,-0.53086 0.512092,1.44511 1.345918,2.65698 2.504158,3.65703 1.933081,1.68106 4.292459,2.76155 6.627707,3.74015 3.879567,1.47462 7.957537,2.45054 12.065,2.99749 0.635423,0.0778 1.345917,0.2976 1.973298,0.16891 0.10992,-0.33782 0.11797,-0.69977 0.0241,-1.08585 0.37804,0.38071 0.2842,0.74803 0.30833,1.23599 0.47992,0.0456 0.95447,0.0912 1.43707,0.0965 5.39708,0.59252 10.95234,0.45043 16.35478,-0.067 0.32174,0.0375 0.46919,-0.10992 0.44506,-0.4397 0.35659,0.0751 0.46116,0.42093 0.8955,0.27347 3.36211,-0.44238 6.64915,-1.09389 9.90134,-2.07518 0.2279,-0.0537 0.31369,-0.18231 0.26007,-0.39144 -1.22795,-0.71049 -2.75886,-1.41295 -3.81522,-2.12076 -1.27889,-0.66223 -2.61945,-1.55772 -3.93319,-2.08054 -3.26024,0.72122 -6.59554,1.20382 -9.93084,1.38345 -0.2842,-0.0268 -0.42629,0.13138 -0.42629,0.47188 l -0.24935,0.0268 c 0.0804,-0.126 0.13137,-0.2547 0.16087,-0.39412 -1.76953,-0.067 -3.62218,-0.0563 -5.3944,0 0.0402,0.22253 0.16355,0.34318 0.37536,0.36464 -0.28688,0.059 -0.50405,0.27078 -0.79093,0.30564 0.1421,-0.1421 0.28152,-0.2842 0.42094,-0.42629 l -0.20109,-0.29761 c -1.20114,-0.1984 -2.37278,-0.0214 -3.55247,-0.32977 -0.63274,0.25202 -0.44506,0.25738 -1.02419,-0.0885 -2.868785,-0.46116 -5.694676,-0.95448 -8.472307,-1.84192 -2.611402,-0.61934 -5.614247,-1.89288 -7.314071,-4.05117 -0.211808,0.42898 -0.329777,0.27615 -0.74535,0.2842 -0.09384,-0.53086 0.541585,-0.0563 0.391443,-0.65419 -0.466513,-0.59521 -0.686364,-1.25744 -0.992011,-1.93308 0.05362,-0.78824 0.0027,-1.51751 0.319052,-2.26554 0.640786,-1.47997 1.780258,-2.50952 3.099365,-3.38357 0.209126,-0.76142 0.294922,0.0724 0.82042,-0.49332 -0.0295,-0.14745 -0.08312,-0.28688 -0.160867,-0.42362 0.233257,0.0107 0.455789,0.0831 0.670278,0.21717 1.249397,-0.64077 2.576547,-1.04294 3.890292,-1.52019 0.391442,-0.12065 0.828463,-0.35121 1.235992,-0.2681 0.7239,0.2413 0.678321,1.49606 -0.123331,1.63279 -2.828572,0.91427 -5.689318,1.74004 -7.57682,4.22812 -0.785566,1.08048 -0.571077,2.3567 0.238619,3.34603 1.474611,1.84996 3.665079,2.78834 5.86359,3.47739 0.230575,0.0107 0.356588,-0.0885 0.372674,-0.30028 0.01876,0.1984 0.107245,0.36463 0.262749,0.50137 0.924984,0.32173 1.88214,0.4826 2.820529,0.75339 0.396805,0.0429 0.715857,-0.005 1.06172,0.23057 1.576493,0.48529 3.276314,0.47188 4.847444,0.86333 2.72938,0.31369 5.56063,0.4826 8.30609,0.35926 -0.2413,-0.40752 -0.0188,-0.51745 0.15014,-0.90086 -0.0322,0.2708 -0.0295,0.53623 0.0134,0.79629 0.67832,0.12065 1.9304,0.13139 2.56046,-0.13137 -0.20376,-0.42362 -0.25738,-0.34854 0.21986,-0.41021 -0.003,-0.32977 -0.12065,-0.49601 -0.35123,-0.49868 0.30565,-0.0268 0.47188,-0.47724 0.65419,-0.17428 0.31101,0.22521 -0.008,0.57644 -0.059,0.85259 0.39412,0.54695 1.3191,0.0616 1.90359,0.12065 0.52817,-0.126 1.45315,0.0456 1.73199,-0.49868 0.44506,0.45042 1.17433,0.0214 1.75077,0.0161 0.2976,-0.11528 0.79629,0.13139 0.73194,-0.34854 -2.24677,-1.15019 -4.60883,-2.00815 -6.88778,-3.08327 -2.10198,-0.86868 -4.12354,-1.9599 -6.18263,-2.92242 -0.50138,-0.16622 -0.88477,-0.51745 -1.36469,-0.73194 -0.39949,-0.14209 -0.61397,0.21181 -0.6381,0.56035 -0.0456,-0.18499 -0.13406,-0.34586 -0.26812,-0.4826 0.35659,0.003 0.47992,-0.11528 0.37804,-0.35658 -0.73195,-0.39681 -1.42635,-0.82311 -2.13149,-1.2628 l -0.20912,0.12065 c -0.36463,0.89548 -0.1287,2.03764 -0.2842,3.00551 0.13137,0.0322 0.26007,0.0644 0.38876,0.0939 l -0.43702,0.0724 c -0.47992,0.9357 -0.97324,2.11003 -1.79902,2.81784 -2.029605,0.89549 -3.691894,0.22521 -5.71077,-0.27883 -1.059039,-0.34587 -1.860691,-1.07245 -2.796399,-1.56309 0.03485,-0.19572 0.06971,-0.39144 0.104564,-0.58717 -0.396805,-0.28687 -0.76948,-0.59252 -0.498687,-1.13142 0.453107,-0.681 0.997373,-1.32179 1.533595,-1.94113 1.549682,-1.71323 4.710712,-1.45852 6.08076,-3.14762 -2.120758,-1.81512 -4.12623,-3.70798 -5.992283,-5.78584 -1.56845,0.24398 -3.118132,0.76412 -4.635641,1.22259 -0.33782,0.24666 -0.06435,0.85259 -0.06167,1.22258 -0.123332,-0.32441 -0.238619,-0.64882 -0.340502,-0.9786 -0.528178,-0.005 -1.042952,0.30832 -1.54432,0.45847 -1.742722,0.80165 -3.447908,1.59794 -4.968098,2.78567 -0.437022,0.30297 -0.745349,0.7668 -1.345919,0.58449 -0.546946,-0.185 -0.86868,-0.81238 -0.420934,-1.28694 3.598051,-3.00284 7.729644,-4.30855 12.15884,-5.54722 -0.453109,-0.76412 -0.903536,-1.52287 -1.32715,-2.30575 l -0.206446,-0.11797 c -5.21208,1.15287 -10.265975,3.01088 -14.974006,5.53113 -0.335139,0.23862 -0.857955,0.34586 -0.7239,0.86868 -0.08848,-0.12869 -0.21717,-0.21717 -0.380718,-0.27079 -2.667706,1.61939 -5.021721,3.65703 -6.710821,6.30061 0.04022,0.13406 0.08043,0.26543 0.123331,0.39412 -0.77216,-0.10724 -0.504049,0.81774 -1.195776,1.02687 -0.544265,0.15014 -1.455843,-0.55231 -2.037644,-0.23862 -0.171591,-0.1555 -0.26543,-0.33246 -0.284197,-0.53354 0.19304,0.50136 1.23063,0.56035 1.128747,-0.0938 1.308383,-2.51488 3.260231,-4.70803 5.485553,-6.47489 -0.05898,-0.21984 -0.176953,-0.34854 -0.359269,-0.39144 0.447746,0.0644 0.761436,0.16891 1.13411,-0.17159 1.490699,-1.06708 3.072554,-1.96793 4.724119,-2.75886 4.284415,-2.11808 8.810131,-3.69994 13.467221,-4.77506 -0.0858,-0.53086 -0.418254,-0.99737 -0.50673,-1.53896 -0.155504,-0.37267 -0.230576,-1.23331 -0.761436,-1.19846 -3.048424,0.6542 -6.043224,1.38614 -8.995128,2.39156 -0.739986,0.16891 -1.23063,-0.99469 -0.664916,-1.43172 0.50405,-0.2976 1.03759,-0.46115 1.600624,-0.60861 2.597996,-0.78824 5.252296,-1.51751 7.930726,-1.96794 0.101883,-0.40216 -0.08848,-0.87135 -0.115287,-1.28156 -0.276154,-0.60058 -0.807014,-0.18768 -0.997373,0.23325 0.02949,-0.54158 0.546946,-0.50673 0.874042,-0.87404 -0.08312,-0.31369 -0.142099,-0.63006 -0.182316,-0.95448 -0.340501,-0.30296 -1.131429,-0.0616 -1.214543,0.40753 -0.02681,-0.16891 -0.152823,-0.27883 -0.380718,-0.33514 -5.826055,1.10998 -11.780802,2.57119 -17.255631,4.89035 -0.03754,0.17695 -0.05363,0.35659 -0.05094,0.54159 -0.06971,-0.15283 -0.182315,-0.27884 -0.335138,-0.38072 -1.4478,0.47455 -2.729372,1.21186 -4.110144,1.83924 -0.638104,0.3539 -1.461206,-0.25739 -1.252079,-0.97592 0.184997,-0.45043 0.86868,-0.64347 1.265485,-0.87941 5.507002,-2.66503 11.467112,-4.54984 17.435265,-5.83946 0.286879,0.0134 0.418253,-0.12869 0.394123,-0.42898 0.123332,0.0938 0.249344,0.18232 0.3834,0.26543 1.587217,-0.37804 3.217333,-0.61934 4.817956,-0.95179 0.06167,-0.3405 -0.008,-1.00542 -0.36195,-1.17433 0.09116,-0.12601 0.179634,-0.25202 0.268111,-0.38072 -0.07775,-0.63542 -0.09652,-1.27353 -0.174272,-1.90895 l -0.225213,-0.0885 c -7.764498,1.11267 -15.357405,3.03771 -22.810894,5.46947 -0.378036,0.15015 -0.278835,0.7105 -0.656872,0.70781 0.230576,-0.311 0.372674,-0.54694 0.0054,-0.82846 -0.509411,-0.29492 -0.437021,-1.24135 0.136736,-1.42099 5.952067,-2.043 12.043551,-3.58196 18.220831,-4.76969 1.683739,-0.26543 3.469359,-0.57644 5.142372,-0.89013 0.12065,-1.49606 -0.131375,-3.11814 -0.206446,-4.61151 0.112607,-0.63811 0.895491,-0.78557 1.35128,-1.21455 0.769479,0.22253 1.270847,0.82578 1.949168,1.16629 0.128693,-0.41826 0.150142,-0.80165 0.613975,-0.98129 5.917211,-0.69173 11.751302,-0.82042 17.692652,-0.97593 5.89039,0.0107 11.57167,0.15819 17.44331,0.60594 0.43434,0.059 0.78556,0.15282 1.19845,-0.0536 0.59521,0.3673 1.45316,0.21448 2.13149,0.31636 1.02418,0.18232 2.06445,0.17696 3.08864,0.34855 0.32977,-0.008 1.05367,0.26543 1.23331,-0.0965 -0.0134,-3.15299 0.005,-6.3167 -0.005,-9.47236 -0.52818,0.56571 -0.85528,1.31374 -1.38882,1.89286 -0.47187,0.68905 -1.19041,1.177 -1.5899,1.90359 -0.38071,0.1555 -0.68368,0.32978 -1.00005,0.59252 -1.90895,1.42903 -4.24956,2.14757 -6.63575,1.83924 -0.77752,0.11261 -1.16628,-1.09925 -0.5389,-1.49338 0.60057,-0.34854 1.46656,0.059 2.14757,-0.0777 1.06708,-0.008 1.97866,-0.41558 2.93581,-0.82847 2.60068,-1.45853 4.36753,-3.92514 5.53918,-6.6143 0.26007,-0.78825 0.64347,-1.44512 0.53086,-2.30575 -0.45311,0.46919 -0.681,1.12606 -1.12071,1.62206 -1.54163,2.18243 -3.90906,3.63828 -6.54995,4.03508 -0.38876,0.0322 -0.82578,0.10993 -1.2065,0.0107 -0.61666,-0.38073 -0.52014,-1.48802 0.26811,-1.59258 1.70251,-0.1153 3.34067,-0.69173 4.6276,-1.8312 1.98402,-1.7186 3.279,-4.32464 3.99754,-6.81003 -0.53086,0.3271 -0.65956,0.94107 -1.12607,1.37273 -1.02955,1.15824 -2.3138,2.05642 -3.87153,2.31112 -0.39412,0.0402 -0.98128,0.22253 -1.31374,-0.0537 -0.58448,-0.40753 -0.20913,-1.55505 0.50941,-1.49875 1.3486,-0.067 2.52561,-0.76947 3.39697,-1.76685 1.18773,-1.35396 1.86069,-3.20929 2.39155,-4.90375 -0.53354,0.47992 -0.85796,1.12339 -1.42903,1.5765 -0.89281,0.78824 -2.09395,1.31106 -3.29241,1.3191 -0.90621,-0.0938 -0.80969,-1.47461 0.0107,-1.61939 0.82042,-0.0804 1.50411,-0.32442 2.14221,-0.85795 1.49069,-1.28694 2.2709,-3.48009 2.60604,-5.36759 0.25738,-0.69709 1.49874,-0.73999 1.69178,0.0188 z"
       fill="#edecea"
       id="path181"
       style="fill:#ffffff;stroke-width:0.268111" />
    <path
       d="m 83.843131,185.92192 c -0.05898,0.6542 -0.659553,0.47456 -1.072445,0.84724 -0.509411,0.36195 -0.166228,0.94911 -0.84455,1.09389 -0.756073,-0.0242 -0.804333,-0.89818 -1.731997,-0.43971 -0.399486,0.5121 -1.077807,0.15015 -1.064401,-0.43701 0.369993,-0.79362 1.525552,-0.9947 2.26822,-0.68637 0.445064,-0.0375 0.576438,-0.59521 1.03759,-0.7239 l -0.104563,-0.31101 c 0.348544,0.13137 1.501421,-0.1421 1.512146,0.65687 z"
       fill="#edecea"
       id="path183"
       style="fill:#ffffff;stroke-width:0.268111" />
    <path
       d="m 66.753729,186.84422 c 0.03754,0.0375 0.03754,0.0375 0,0 z"
       fill="#edecea"
       id="path185"
       style="fill:#ffffff;stroke-width:0.268111" />
    <path
       d="m 111.29234,187.8979 c -0.0188,0.36999 -0.0134,0.74267 -0.0321,1.11266 -0.65687,2.20387 -1.64889,4.45333 -3.13422,6.22823 -1.33788,1.58185 -3.19857,2.80443 -5.29251,3.01088 -1.56578,0.23594 -3.152993,-0.57644 -4.319276,-1.55773 -1.699825,-1.48265 -2.917049,-3.58196 -3.673122,-5.68663 -0.198403,-0.56304 -0.4826,-1.15824 -0.4826,-1.76149 1.093893,1.89287 2.34061,3.56856 4.346081,4.56861 0.388761,0.21717 0.442383,0.13406 0.230575,0.56572 1.611352,0.4531 3.367482,0.4397 4.970782,-0.12602 2.94654,-0.90889 5.24425,-3.20392 6.85292,-5.7617 0.20376,-0.2708 0.13137,-0.60594 0.53354,-0.59253 z"
       fill="#010101"
       id="path187"
       style="stroke-width:0.268111" />
    <path
       d="m 74.941842,189.6728 c 0.490643,1.69982 1.514828,3.66507 3.493488,3.84203 0.943751,-0.0751 1.25476,1.48533 0.276155,1.66229 -1.32447,0.003 -2.396914,-0.56304 -3.394287,-1.38346 0.538903,1.39418 1.670332,2.82589 3.139581,3.30581 0.62738,0.2413 1.171646,0.0509 1.710549,0.49601 0.222532,0.51209 0.227894,1.1073 -0.372675,1.33787 -1.812431,0.0778 -3.166392,-0.79896 -4.477455,-1.92503 0.906215,2.10467 2.79908,4.15304 5.131647,4.62492 0.4826,0.13405 0.970561,0.15282 1.463886,0.21448 0.729262,0.15014 0.828464,1.47729 0.02145,1.61135 -2.764225,0.008 -5.214761,-1.33519 -6.879731,-3.50689 0.391442,1.45048 1.555045,2.86074 2.640895,3.88761 0.115287,-0.0349 0.233256,-0.0697 0.348544,-0.10457 l 0.06703,0.4263 c 0.903534,0.68905 1.927719,1.14483 3.01625,1.45584 0.89281,0.20377 1.774895,0.0858 2.670387,0.14211 0.691726,0.29491 0.715856,1.27084 -0.02145,1.54163 -0.949114,0.20108 -2.016195,0.1421 -2.965308,-0.059 -0.134056,0.0644 -0.254706,0.14746 -0.353907,0.2547 l -0.07239,-0.37267 c -2.211917,-0.54427 -3.922466,-2.01888 -5.35686,-3.69994 0.678321,2.69452 3.029655,5.16114 5.828735,5.66787 0.415572,0.0724 0.914259,0.0134 1.286933,0.21449 0.544266,0.37268 0.479919,1.37005 -0.225213,1.50947 -2.209235,0.0188 -4.466731,-0.94107 -5.989602,-2.54706 -0.43434,-0.40216 -0.726582,-0.91426 -1.131429,-1.33787 -0.04289,1.90895 0.0027,3.82058 -0.02681,5.72685 0.305647,0.25203 0.766798,0.0295 1.118024,-0.0188 2.498795,-0.42361 4.992229,-0.85795 7.509792,-1.15287 0.474557,-0.059 1.120704,-0.31369 1.453162,0.17695 0.418254,0.50941 0.109926,1.22795 -0.517454,1.33251 -6.619664,0.86332 -13.102591,2.11272 -19.572111,3.77232 -0.887448,0.25203 -1.46925,-0.99737 -0.694408,-1.50946 2.938498,-0.78289 5.957428,-1.50947 8.949548,-2.05373 0.219852,-0.6247 0.05898,-1.41563 0.107245,-2.08054 -0.04826,-1.22259 0.09652,-2.53902 -0.07507,-3.73747 -0.292242,-0.003 -0.466514,0.44774 -0.67564,0.6247 -1.525553,1.7588 -3.935872,2.8661 -6.268439,2.79639 -0.87136,-0.25202 -0.659553,-1.6462 0.26275,-1.63011 2.65698,-0.11261 4.80187,-1.82316 6.016413,-4.10746 0.209127,-0.48797 0.726581,-1.09658 0.589844,-1.64352 -1.887502,2.48002 -4.756291,4.1718 -7.944132,3.98145 -0.53086,0.005 -1.316425,-0.16891 -1.289615,-0.84187 -0.01072,-0.59253 0.453109,-0.91158 1.021504,-0.83383 2.321842,0.20913 4.53644,-0.75875 6.131701,-2.41836 0.857955,-0.89549 1.83388,-2.1288 2.072499,-3.35943 -1.370048,1.89554 -3.463995,3.16371 -5.788519,3.44791 -0.404848,0.0268 -0.983968,0.17695 -1.329831,-0.0831 -0.595207,-0.40753 -0.225214,-1.57381 0.522816,-1.49874 2.87147,-0.0697 5.33273,-2.24677 6.338147,-4.81796 -0.581801,0.46115 -1.08585,0.97861 -1.764171,1.31107 -0.906216,0.50673 -1.903589,0.496 -2.796399,0.89817 -0.08311,-0.57912 -0.600568,-0.67564 -0.329777,-1.39418 0.402167,-0.7802 1.177009,-0.41557 1.916995,-0.75875 1.227949,-0.39681 2.670387,-2.03229 2.970671,-3.2656 -0.65151,0.49065 -1.252079,0.97593 -2.061774,1.18237 -0.522817,0.13674 -1.316426,0.40485 -1.750766,-0.0483 -0.176953,-0.34586 -0.174272,-0.76679 0.03217,-1.09925 0.294922,-0.4397 0.975924,-0.25203 1.4478,-0.47456 1.59526,-0.56571 2.53633,-2.53633 2.833934,-4.08869 0.517455,-0.67832 1.619392,-0.4826 1.734679,0.40753 z"
       fill="#edecea"
       id="path189"
       style="fill:#ffffff;stroke-width:0.268111" />
    <path
       d="m 173.44587,208.27434 c 0.0724,0.0751 0.0724,0.0751 0,0 z"
       fill="#edecea"
       id="path191"
       style="fill:#ffffff;stroke-width:0.268111" />
    <path
       d="m 139.37699,211.74638 c 0.31636,-0.17427 0.81774,-0.17158 1.04831,0.13674 0.45042,0.50673 0.13942,1.42635 -0.59252,1.39418 -0.81507,0.0134 -1.1073,-1.07512 -0.45579,-1.53092 z"
       fill="#edecea"
       id="path193"
       style="fill:#ffffff;stroke-width:0.268111" />
    <path
       d="m 89.548535,214.45967 0.31101,-0.0161 c 5.391714,3.83935 12.054275,6.33815 18.068005,8.99781 0.34587,0.0402 0.49065,0.17963 0.42898,0.41557 -4.7831,0.5818 -9.79678,1.31911 -14.593288,1.96526 -2.434449,-3.21198 -3.686527,-7.4106 -4.214707,-11.36255 z"
       fill="#010101"
       id="path195"
       style="stroke-width:0.268111" />
    <path
       d="m 117.31144,214.85915 c 1.95989,-0.0214 3.94659,0.16891 5.90917,0.24667 10.08634,0.86064 20.50245,2.37546 30.15714,5.49895 0.45847,0.0295 0.68636,0.0242 1.08049,0.30029 2.12344,0.70245 4.2147,1.45048 6.28988,2.29235 0.40485,0.13405 0.92766,0.34587 1.05368,0.79897 0.13406,0.60325 -0.4263,1.21454 -1.04831,0.9947 -10.93626,-4.47478 -22.85916,-6.86633 -34.59438,-7.9495 -0.45847,-0.0965 -0.79361,0.13138 -1.21723,-0.10725 -2.46126,-0.21449 -4.8957,-0.35927 -7.36501,-0.45847 -0.87136,-0.0188 -1.10998,-1.32715 -0.26543,-1.61671 z"
       fill="#edecea"
       id="path197"
       style="fill:#ffffff;stroke-width:0.268111" />
    <path
       d="m 96.77413,216.67158 c 2.343291,0.97325 4.77238,1.80171 7.12908,2.75887 3.4479,1.42099 7.00038,2.96263 10.28206,4.73216 0.34049,0.1984 0.16086,0.681 -0.24667,0.52013 -4.99222,-2.82589 -10.67082,-4.67585 -15.818552,-7.2524 -0.490643,-0.26007 -1.15824,-0.42898 -1.584537,-0.79361 -0.05094,-0.059 0.02949,-0.0483 0.238619,0.0349 z"
       fill="#010101"
       id="path199"
       style="stroke-width:0.268111" />
    <path
       d="m 124.14023,220.10341 c 0.65151,-0.22522 1.36737,-0.10189 1.50411,0.67027 0.0724,0.92231 -1.16093,1.18237 -1.72664,0.63543 -0.36732,-0.39144 -0.2413,-1.04832 0.22253,-1.3057 z"
       fill="#edecea"
       id="path201"
       style="fill:#ffffff;stroke-width:0.268111" />
    <path
       d="m 89.272381,220.33934 0.01609,0.0376 c 1.252079,3.60073 3.230739,6.91458 5.989603,9.5662 2.597996,2.5417 5.863586,4.52572 9.075556,6.22018 -1.21186,1.56041 -2.54169,3.07792 -3.76964,4.63564 -0.48528,0.0644 -0.82578,-0.58716 -1.230628,-0.79361 -2.375464,-2.0296 -4.72948,-4.26832 -6.46684,-6.89313 -1.681057,-2.61945 -2.549737,-5.54722 -3.123494,-8.58492 -0.158186,-1.43171 -0.541584,-2.75618 -0.490644,-4.1879 z"
       fill="#010101"
       id="path203"
       style="stroke-width:0.268111" />
    <path
       d="m 112.31653,221.43324 c 1.47461,0.0724 2.97067,-0.0322 4.42919,0.18499 -0.14745,0.33247 -0.94642,1.38346 -1.29765,1.4344 -0.90622,-0.38608 -1.74273,-0.97861 -2.67843,-1.31643 -0.15282,-0.0563 -0.28956,-0.14745 -0.41558,-0.27079 z"
       fill="#010101"
       id="path205"
       style="stroke-width:0.268111" />
    <path
       d="m 132.05487,221.55925 c 4.64369,0.71854 9.18817,1.82584 13.68707,3.16907 4.9681,1.58454 9.72708,3.49885 14.13214,6.3167 0.39412,0.28152 1.00541,0.53086 1.21186,0.98665 0.23594,0.66223 -0.46651,1.46925 -1.13947,1.02687 -6.75908,-4.46137 -14.9177,-7.13176 -22.77604,-8.86644 -1.4344,-0.30833 -2.89024,-0.52282 -4.31927,-0.85795 -0.64615,-0.14478 -1.25208,-0.0295 -1.732,-0.54159 -0.12601,-0.61934 0.24667,-1.28157 0.93571,-1.23331 z"
       fill="#edecea"
       id="path207"
       style="fill:#ffffff;stroke-width:0.268111" />
    <path
       d="m 118.27932,222.47619 c 0.10724,0.4263 -0.42897,0.69173 -0.63006,1.04831 -4.8823,5.9333 -9.63055,11.70037 -14.49677,17.66585 -0.64347,0.7802 -1.34323,1.58454 -1.80707,2.48807 -0.51477,0.98128 -0.33245,2.05641 -0.46383,3.10472 -0.16355,1.06172 -0.73998,1.77758 -1.348597,2.61141 -2.136845,0.33513 -4.506948,-0.38608 -6.233583,-1.66497 -0.276155,-0.35927 0.2413,-0.69441 0.517455,-0.83919 0.107244,-0.6113 1.01614,-1.42903 1.673013,-1.28694 0.246662,-0.4826 0.707813,-0.51745 1.177007,-0.65955 0.951795,-0.22789 1.866054,-0.53086 2.683793,-1.08585 1.817792,-1.14483 3.080602,-3.02965 4.482822,-4.64905 3.2924,-3.94659 6.66255,-7.81812 9.99518,-11.72718 1.4907,-1.66228 2.87415,-3.42646 4.45064,-5.00563 z"
       fill="#010101"
       id="path209"
       style="stroke-width:0.268111" />
    <path
       d="m 109.98932,225.101 c 0.60862,0.0241 1.05905,-0.30565 1.60599,0.0616 0.21181,0.17159 0.866,0.35123 0.86064,0.64883 -0.79897,0.21717 -1.67034,0.2842 -2.49611,0.33782 -0.059,-0.36463 -0.0509,-0.71586 0.0295,-1.04831 z"
       fill="#010101"
       id="path211"
       style="stroke-width:0.268111" />
    <path
       d="m 171.31438,225.17607 c 0.0456,0.0483 0.0456,0.0483 0,0 z"
       fill="#edecea"
       id="path213"
       style="fill:#ffffff;stroke-width:0.268111" />
    <path
       d="m 109.64883,225.16803 c 0.37803,0.4531 0.27079,1.0215 -0.36732,1.11266 -4.46673,0.67296 -8.97904,1.22526 -13.437725,1.94112 -0.268112,-0.0858 -0.975925,-0.67564 -0.84455,-0.98664 1.943805,-0.40754 4.002898,-0.47725 5.946705,-0.87405 2.8661,-0.44506 5.85287,-0.64614 8.70289,-1.19309 z"
       fill="#010101"
       id="path215"
       style="stroke-width:0.268111" />
    <path
       d="m 117.44818,226.00721 c 0.47724,0.0644 0.9223,0.5684 1.37005,0.77753 3.98412,2.34061 7.37841,5.2523 11.07299,7.97899 2.2414,1.62475 4.57933,3.14762 7.02451,4.44259 0.18231,0.14746 0.72657,0.28152 0.7239,0.54963 -0.52282,0.19573 -0.64615,0.185 -1.12339,-0.0992 -4.70267,-2.34061 -8.29804,-5.61961 -12.50202,-8.67608 -1.98134,-1.50678 -4.47209,-3.12349 -6.63039,-4.39166 -0.0778,-0.16622 -0.0563,-0.35926 0.0644,-0.5818 z"
       fill="#010101"
       id="path217"
       style="stroke-width:0.268111" />
    <path
       d="m 111.16634,227.6132 0.25202,0.0938 c 0.003,0.31369 -0.0912,0.47187 -0.28152,0.47992 -1.60062,0.33782 -3.21197,0.50941 -4.81795,0.72658 -2.77228,0.34855 -5.52846,0.91962 -8.311449,1.14215 -0.369993,0.0349 -0.823101,-0.12333 -0.705132,-0.57108 4.630281,-0.53354 9.233751,-1.37809 13.864031,-1.87141 z"
       fill="#010101"
       id="path219"
       style="stroke-width:0.268111" />
    <path
       d="m 117.5876,228.5918 0.20108,0.0349 c 1.64888,0.99738 3.25755,2.09127 4.81259,3.23074 0.14747,0.0965 0.23862,0.21985 0.27347,0.36999 -1.95453,0.26007 -3.9171,0.45311 -5.8609,0.77216 -0.1984,-0.11796 -0.39681,-0.22253 -0.59789,-0.30833 0.0322,0.31906 -0.11529,0.47188 -0.44239,0.45847 -0.88744,0.13674 -1.78293,0.24667 -2.67306,0.37804 -0.68368,0.11529 -1.42904,0.3834 -2.12344,0.3405 l 0.0349,-0.21181 c 1.12607,-1.27084 2.17707,-2.61408 3.25487,-3.92514 0.57912,-1.03759 2.17975,-0.48528 3.12082,-1.13948 z"
       fill="#010101"
       id="path221"
       style="stroke-width:0.268111" />
    <path
       d="m 109.45311,229.99134 c 0.008,0.19036 -0.0402,0.34051 -0.15015,0.44775 -1.1073,1.23331 -2.12612,2.54706 -3.25487,3.75624 -0.22789,-0.0375 -0.45578,-0.0885 -0.67832,-0.1555 0.008,0.39948 0.60862,0.47723 0.0885,0.89012 -1.93577,-0.82846 -3.98681,-2.09395 -5.750985,-3.26827 l 0.01072,-0.29224 c 3.214655,-0.38877 6.539235,-0.85528 9.735125,-1.3781 z"
       fill="#010101"
       id="path223"
       style="stroke-width:0.268111" />
    <path
       d="m 105.04267,231.0343 c 0.13406,0.13406 0.13406,0.13406 0,0 z"
       fill="#edecea"
       id="path225"
       style="fill:#ffffff;stroke-width:0.268111" />
    <path
       d="m 72.410873,231.39357 c 0.420935,-0.15015 0.750711,-0.37804 1.198457,-0.14478 0.557671,0.2547 0.7239,1.17433 0.0563,1.4049 -2.766907,1.36468 -5.362222,2.82857 -7.646529,4.93325 -0.281516,0.28419 -0.576439,0.43165 -0.986649,0.31904 -0.487962,-0.11528 -0.420934,-0.71853 -0.94107,-0.68368 l 0.0054,-0.18231 c 0.533541,-0.19573 0.94107,-0.94376 1.458524,-1.28158 -0.02681,-0.13405 -0.07239,-0.26274 -0.134055,-0.38339 0.268111,0.0911 0.496005,0.0751 0.686364,-0.0429 1.214543,-0.9786 2.53365,-1.84193 3.882249,-2.62213 0.233257,-0.10188 0.321734,-0.2842 0.26543,-0.54695 0.126012,0.0724 0.254706,0.1421 0.38608,0.20645 0.565714,-0.36999 1.166284,-0.67296 1.769534,-0.97592 z"
       fill="#edecea"
       id="path227"
       style="fill:#ffffff;stroke-width:0.268111" />
    <path
       d="m 163.76974,233.17919 c 0.13137,0.13674 0.13137,0.13674 0,0 z"
       fill="#edecea"
       id="path229"
       style="fill:#ffffff;stroke-width:0.268111" />
    <path
       d="m 125.81593,234.36156 c -0.70245,0.12065 -1.41295,0.17963 -2.1154,0.30028 -0.13942,-0.10456 -0.26007,-0.22789 -0.35927,-0.36463 0.008,0.62202 -0.49869,0.41826 -0.93571,0.53622 -4.00558,0.50942 -8.2605,1.17969 -12.19637,1.67838 -0.37268,0.0509 -0.83383,0.21449 -1.18773,0.0509 0.0483,-0.36463 0.3834,-0.76412 0.7802,-0.77216 0.98396,-0.16623 1.96794,-0.36195 2.93582,-0.60057 1.95989,-0.39144 3.94659,-0.52282 5.91452,-0.85528 1.89287,-0.31369 3.71067,-0.54694 5.61694,-0.73194 0.71585,-0.30297 1.09389,0.30297 1.547,0.75875 z"
       fill="#010101"
       id="path231"
       style="stroke-width:0.268111" />
    <path
       d="m 127.5077,235.67798 c 0.29225,0.10725 0.9947,0.40753 0.96253,0.78557 -4.4721,0.50673 -9.82091,1.40758 -14.37881,1.89286 -0.37267,-0.23057 -1.42367,-0.18231 -1.54967,-0.62469 0.6381,-0.18232 1.01077,0.19571 1.5604,-0.20913 4.45332,-0.57912 8.96563,-1.25208 13.40555,-1.84461 z"
       fill="#010101"
       id="path233"
       style="stroke-width:0.268111" />
    <path
       d="m 130.40063,237.71831 c 1.20917,0.87672 2.47198,1.67301 3.75355,2.43713 l 0.0322,0.15282 c -0.73194,0.27615 -1.61939,0.12869 -2.39691,0.27347 -3.8608,0.19037 -7.72696,-0.0456 -11.52878,-0.75339 -0.53622,-0.13674 -1.36469,-0.0938 -1.80171,-0.45578 2.06178,-0.26543 4.15841,-0.65688 6.22018,-0.80434 1.86874,-0.43434 3.83667,-0.50405 5.7215,-0.84991 z"
       fill="#010101"
       id="path235"
       style="stroke-width:0.268111" />
    <path
       d="m 107.91951,237.847 c 2.02692,0.69977 4.21471,1.61671 6.30597,2.14757 3.59001,1.07244 7.10763,1.67569 10.84509,2.01888 0.34855,0.0161 0.7105,0.16354 0.68369,0.5684 -0.0107,-0.23058 0.1126,-0.40217 0.37268,-0.51478 2.37009,0.17963 4.76433,0.12065 7.13443,-0.0268 1.6328,-0.26543 3.14763,-0.12333 4.71071,-0.74803 l 0.22521,0.0858 c 0.0751,1.0081 0.10725,2.0162 0.21717,3.02161 0.0349,0.34319 -0.16891,0.47456 -0.61129,0.39145 0.31369,0.26811 0.7668,0.10188 0.7534,0.63542 0.27883,3.21197 0.65151,6.20141 -0.0134,9.41338 -0.33514,1.17433 -0.681,2.34061 -1.56576,3.22002 -0.42899,0.64078 -1.62208,1.57381 -2.36207,0.91425 -3.20929,-1.59258 -6.45612,-3.41037 -9.54476,-5.2228 0.0537,-0.23058 0.11261,-0.45847 0.17965,-0.68636 l -0.28956,-0.0134 c 0.0536,0.43166 -0.0804,0.59253 -0.40217,0.48796 -2.34598,-1.37273 -4.55522,-2.39691 -6.99235,-3.54443 0.0188,-0.15282 0.0697,-0.30028 0.15552,-0.43702 -0.22254,0.0751 -0.44239,0.16355 -0.65956,0.26275 -0.34586,-0.31369 -1.62475,-0.46919 -1.50142,-1.0215 -0.1287,0.0537 -0.25471,0.10456 -0.38341,0.15818 -3.91978,-1.77221 -7.82884,-3.45863 -11.50196,-5.71613 -0.0402,-0.17963 0.0188,-0.35122 0.17964,-0.51477 1.36737,-1.57917 2.63552,-3.38088 4.06456,-4.87962 z"
       fill="#010101"
       id="path237"
       style="stroke-width:0.268111" />
    <path
       d="m 155.69423,239.85783 c 0.88208,-0.67831 1.48265,0.63543 1.9438,1.18505 0.61666,0.58181 0.15819,1.54164 -0.64882,1.47998 -0.58717,-0.16623 -0.9518,-0.92499 -1.33252,-1.36737 -0.36463,-0.40217 -0.39949,-0.93571 0.0375,-1.29766 z"
       fill="#edecea"
       id="path239"
       style="fill:#ffffff;stroke-width:0.268111" />
    <path
       d="m 149.69122,243.33523 c 0.23058,0.39681 -0.65956,0.61934 -0.92499,0.65956 -0.20376,-0.41289 0.63811,-0.72122 0.92499,-0.65956 z"
       fill="#edecea"
       id="path241"
       style="fill:#ffffff;stroke-width:0.268111" />
    <path
       d="m 165.12906,243.39154 c 0.0858,0.0885 0.0858,0.0885 0,0 z"
       fill="#edecea"
       id="path243"
       style="fill:#ffffff;stroke-width:0.268111" />
    <path
       d="m 168.30618,243.6382 h 0.16622 c 0.19304,0.50137 -0.36195,0.49869 -0.16622,0 z"
       fill="#edecea"
       id="path245"
       style="fill:#ffffff;stroke-width:0.268111" />
    <path
       d="m 78.330766,244.20928 c -0.278835,0.65687 0.04558,1.30034 -0.455788,1.74808 -0.33782,0.40485 -0.957157,0.42898 -1.284253,-0.003 -0.517454,-0.58716 0.21449,-1.93844 1.03491,-1.57113 0.28956,0.20376 0.525497,0.14478 0.705131,-0.17427 z"
       fill="#edecea"
       id="path247"
       style="fill:#ffffff;stroke-width:0.268111" />
    <path
       d="m 164.60088,245.27904 c 0.0644,0.067 0.0644,0.067 0,0 z"
       fill="#edecea"
       id="path249"
       style="fill:#ffffff;stroke-width:0.268111" />
    <path
       d="m 112.38356,246.31663 c 0.0268,0.15015 -0.17428,0.73194 -0.37536,0.65688 -0.0831,-0.3271 -0.16087,-0.91694 0.37536,-0.65688 z"
       fill="#edecea"
       id="path251"
       style="fill:#ffffff;stroke-width:0.268111" />
    <path
       d="m 65.673241,247.96284 c 0.0563,0.0563 0.0563,0.0563 0,0 z"
       fill="#edecea"
       id="path253"
       style="fill:#ffffff;stroke-width:0.268111" />
    <path
       d="m 161.901,247.93602 c 0.10993,0.11529 0.10993,0.11529 0,0 z"
       fill="#edecea"
       id="path255"
       style="fill:#ffffff;stroke-width:0.268111" />
    <path
       d="m 170.15078,252.19363 c 0.55231,-0.32173 0.50673,0.37804 0.45043,0.71586 -0.20913,0.0483 -0.49333,-0.53623 -0.45043,-0.71586 z"
       fill="#edecea"
       id="path257"
       style="fill:#ffffff;stroke-width:0.268111" />
    <path
       d="m 144.92421,269.32056 c 0.46919,0.44775 0.23057,1.28157 -0.40753,1.45585 -5.67055,1.99207 -11.60653,3.30313 -17.55324,4.13159 -2.84466,0.47456 -5.71881,0.61665 -8.57688,0.9223 -9.69757,0.54695 -19.389789,0.23326 -28.958675,-1.44511 -1.415626,-0.27616 -2.900962,-0.43434 -4.284415,-0.82847 -0.764117,-0.27884 -0.477238,-1.47729 0.262749,-1.57381 0.697089,0.0375 1.343236,0.20645 2.008152,0.37267 8.477674,1.61135 17.244909,2.2575 25.861999,1.99475 9.27128,-0.2413 18.47286,-1.42099 27.38487,-4.04044 0.12601,-0.22789 0.185,-0.45579 0.36999,-0.6381 l 0.14478,0.39413 c 0.77216,-0.11798 1.53092,-0.4129 2.27358,-0.65688 0.47188,-0.14478 1.03223,-0.49332 1.47462,-0.0885 z"
       fill="#edecea"
       id="path259"
       style="fill:#ffffff;stroke-width:0.268111" />
    <path
       d="m 110.44779,273.43339 c 0.0563,0.0537 0.0563,0.0537 0,0 z"
       fill="#edecea"
       id="path261"
       style="fill:#ffffff;stroke-width:0.268111" />
    <path
       d="m 82.816265,276.33972 c 0.281517,-0.13406 0.428978,-0.067 0.442384,0.20376 -0.03754,0.42093 -0.541584,-0.003 -0.442384,-0.20376 z"
       fill="#edecea"
       id="path263"
       style="fill:#ffffff;stroke-width:0.268111" />
    <path
       d="m 142.04737,280.38819 c 0.20109,-0.0241 0.25471,0.10724 0.15819,0.39412 -0.24666,0.0456 -0.30029,-0.0858 -0.15819,-0.39412 z"
       fill="#edecea"
       id="path265"
       style="fill:#ffffff;stroke-width:0.268111" />
    <path
       d="m 111.68915,281.65099 c 0.60861,-0.46651 1.45853,0.0295 1.31107,0.79093 -0.0107,0.61666 -0.86333,0.85528 -1.2923,0.49333 -0.38608,-0.24399 -0.3834,-1.02419 -0.0188,-1.28426 z"
       fill="#edecea"
       id="path267"
       style="fill:#ffffff;stroke-width:0.268111" />
    <path
       d="m 103.97291,286.82286 c 0.19573,-0.0322 0.24399,0.0912 0.1421,0.36463 -0.21449,0.0349 -0.26006,-0.0858 -0.1421,-0.36463 z"
       fill="#edecea"
       id="path269"
       style="fill:#ffffff;stroke-width:0.268111" />
    <path
       d="m 111.437,243.8992 q -0.0938,-0.0313 -0.14026,-0.12056 -0.0434,-0.0908 -0.0121,-0.18455 l 0.94091,-2.84101 q 0.005,-0.0214 0.0115,-0.0419 0.0107,-0.032 0.0343,-0.0572 0.0259,-0.0244 0.0572,-0.0495 0.0847,-0.0709 0.18762,-0.0365 0.16469,0.055 0.18369,0.2037 l 0.55706,2.40553 1.79977,-1.62119 q 0.10681,-0.0915 0.22347,-0.0525 0.0984,0.0328 0.15017,0.12132 0.0518,0.0885 0.0182,0.18914 l -0.9554,2.86159 q -0.0313,0.0938 -0.12285,0.1395 -0.0885,0.0442 -0.18227,0.0129 -0.0938,-0.0313 -0.14026,-0.12056 -0.0434,-0.0908 -0.0121,-0.18455 l 0.68276,-2.04498 -1.44426,1.3331 q -0.0389,0.0328 -0.1045,0.0541 -0.0648,0.019 -0.1266,-0.002 -0.13267,-0.0443 -0.16692,-0.17777 l -0.45812,-1.98605 -0.67514,2.04498 -7.6e-4,0.002 q -0.0313,0.0938 -0.12285,0.1395 -0.0885,0.0442 -0.18227,0.0129 z"
       style="font-weight:bold;font-size:4.93889px;line-height:1.25;font-family:Manjari;-inkscape-font-specification:'Manjari Bold';letter-spacing:0.264583px;fill:#ffffff;stroke-width:0.264583"
       id="path12782" />
    <path
       d="m 115.86839,241.95183 q 0.0251,-0.0932 0.11019,-0.14015 0.0881,-0.0487 0.18352,-0.023 l 1.99491,0.54003 0.002,6.2e-4 q 0.0955,0.0257 0.14417,0.11378 0.0517,0.0864 0.0259,0.18182 -0.0257,0.0955 -0.1144,0.1465 -0.0857,0.0493 -0.18119,0.0236 l -0.002,-6.3e-4 -1.76207,-0.47728 -0.25491,0.95532 1.56629,0.43452 q 0.10012,0.027 0.1465,0.1144 0.0487,0.088 0.0192,0.19749 -0.0251,0.0931 -0.11484,0.13889 -0.0891,0.0434 -0.17761,0.0196 l -0.002,-6.3e-4 -1.56163,-0.43326 -0.26307,0.98559 1.75633,0.47074 0.002,6.3e-4 q 0.0955,0.0257 0.14418,0.11377 0.0517,0.0864 0.0259,0.18182 -0.0257,0.0955 -0.1144,0.14651 -0.0857,0.0493 -0.18119,0.0236 l -0.002,-6.2e-4 -1.98918,-0.53349 q -0.0955,-0.0257 -0.14713,-0.11208 -0.0487,-0.088 -0.0236,-0.18119 z"
       style="font-weight:bold;font-size:4.93889px;line-height:1.25;font-family:Manjari;-inkscape-font-specification:'Manjari Bold';letter-spacing:0.264583px;fill:#ffffff;stroke-width:0.264583"
       id="path12784" />
    <path
       d="m 118.72224,242.71197 q 0.0212,-0.099 0.10556,-0.14758 0.0872,-0.0504 0.18627,-0.0292 0.11084,0.0237 0.16241,0.12846 l 1.26327,2.79809 0.48588,-2.27094 q 0.0202,-0.0943 0.1027,-0.14573 0.0854,-0.0533 0.18207,-0.0326 0.0967,0.0207 0.15044,0.1037 0.0566,0.0812 0.0364,0.1755 l -0.63507,2.95667 q -0.0212,0.099 -0.10842,0.14943 -0.0844,0.0485 -0.18341,0.0273 -0.11084,-0.0237 -0.1614,-0.13317 l -1.26142,-2.79523 -0.4874,2.27801 q -0.0202,0.0943 -0.10556,0.14758 -0.0825,0.0514 -0.1792,0.0307 -0.0967,-0.0207 -0.1533,-0.10185 -0.0538,-0.083 -0.0336,-0.17735 z"
       style="font-weight:bold;font-size:4.93889px;line-height:1.25;font-family:Manjari;-inkscape-font-specification:'Manjari Bold';letter-spacing:0.264583px;fill:#ffffff;stroke-width:0.264583"
       id="path12786" />
    <path
       d="m 121.84009,243.3643 q 0.015,-0.0953 0.0946,-0.15113 0.0823,-0.0579 0.18,-0.0425 l 2.04125,0.32343 0.002,3.8e-4 q 0.0977,0.0154 0.15552,0.0977 0.0606,0.0803 0.0452,0.178 -0.0153,0.0977 -0.0981,0.1579 -0.08,0.0582 -0.17763,0.0429 l -0.002,-3.8e-4 -1.80302,-0.28597 -0.15121,0.97712 1.60379,0.2644 q 0.10244,0.0161 0.15791,0.0981 0.0578,0.0823 0.0402,0.1943 -0.015,0.0953 -0.0993,0.15038 -0.084,0.0527 -0.17449,0.0385 l -0.002,-3.8e-4 -1.59903,-0.26365 -0.15608,1.00808 1.79662,0.28008 0.002,3.7e-4 q 0.0977,0.0154 0.15553,0.0977 0.0606,0.0803 0.0452,0.178 -0.0154,0.0977 -0.0981,0.1579 -0.08,0.0582 -0.17763,0.0429 l -0.002,-3.7e-4 -2.03485,-0.31754 q -0.0977,-0.0154 -0.15828,-0.0957 -0.0579,-0.0823 -0.0429,-0.17762 z"
       style="font-weight:bold;font-size:4.93889px;line-height:1.25;font-family:Manjari;-inkscape-font-specification:'Manjari Bold';letter-spacing:0.264583px;fill:#ffffff;stroke-width:0.264583"
       id="path12788" />
    <path
       d="m 124.73633,243.81217 q 0.01,-0.10081 0.0881,-0.15861 0.081,-0.06 0.18176,-0.0502 0.11281,0.011 0.17594,0.10919 l 1.57275,2.6366 0.22494,-2.31142 q 0.009,-0.096 0.0855,-0.15644 0.0788,-0.0626 0.17719,-0.053 0.0984,0.01 0.16124,0.086 0.0655,0.0742 0.0561,0.17022 l -0.29532,3.00966 q -0.01,0.10081 -0.0908,0.16077 -0.0783,0.0578 -0.17912,0.048 -0.11281,-0.011 -0.17548,-0.114 l -1.57058,-2.63395 -0.22564,2.31862 q -0.009,0.096 -0.0881,0.1586 -0.0761,0.0604 -0.17456,0.0509 -0.0984,-0.01 -0.16388,-0.0838 -0.0628,-0.0764 -0.0535,-0.17239 z"
       style="font-weight:bold;font-size:4.93889px;line-height:1.25;font-family:Manjari;-inkscape-font-specification:'Manjari Bold';letter-spacing:0.264583px;fill:#ffffff;stroke-width:0.264583"
       id="path12790" />
    <path
       d="m 129.02896,243.89775 0.0362,0.001 q 0.42427,0.0117 0.74078,0.16994 0.31657,0.15587 0.52416,0.41489 0.21006,0.25668 0.30992,0.57304 0.10234,0.31403 0.0934,0.63947 -0.0137,0.49659 -0.24852,0.87854 -0.23246,0.38202 -0.67488,0.5918 -0.44002,0.20985 -1.07644,0.19234 l -0.1133,-0.003 -0.54949,-0.0199 q -0.0964,-0.005 -0.16669,-0.0794 -0.0679,-0.0742 -0.0651,-0.17549 l 0.0982,-2.95741 q 0.003,-0.0964 0.0745,-0.16442 0.0719,-0.0704 0.16839,-0.0702 z m 1.27571,1.77207 q 0.0123,-0.44838 -0.17055,-0.72843 -0.18288,-0.28005 -0.52416,-0.41489 -0.34121,-0.13724 -0.80647,-0.15004 -0.0988,-0.003 -0.19774,-0.003 -0.0965,-2.4e-4 -0.19546,0.002 l -0.0827,2.48016 0.31084,0.0134 q 0.48454,0.0133 0.85414,-0.0923 0.37208,-0.10798 0.58448,-0.37475 0.21481,-0.2667 0.2276,-0.73196 z"
       style="font-weight:bold;font-size:4.93889px;line-height:1.25;font-family:Manjari;-inkscape-font-specification:'Manjari Bold';letter-spacing:0.264583px;fill:#ffffff;stroke-width:0.264583"
       id="path12792" />
    <path
       d="m 131.22339,244.18148 q -0.005,-0.0964 0.0622,-0.16709 0.069,-0.0732 0.16776,-0.0779 l 2.06456,-0.0943 0.002,-1.1e-4 q 0.0988,-0.005 0.17201,0.0644 0.0756,0.0665 0.0802,0.16523 0.005,0.0988 -0.0643,0.17442 -0.0666,0.0731 -0.16535,0.0778 l -0.002,1.1e-4 -1.82366,0.0831 0.0487,0.98755 1.62418,-0.0641 q 0.10359,-0.005 0.17442,0.0642 0.0733,0.069 0.0786,0.18221 0.005,0.0964 -0.067,0.16731 -0.0716,0.0685 -0.16317,0.0728 l -0.002,1.2e-4 -1.61936,0.0638 0.0502,1.01886 1.81622,-0.0875 0.002,-1.2e-4 q 0.0988,-0.005 0.17201,0.0644 0.0755,0.0665 0.0802,0.16523 0.005,0.0988 -0.0642,0.17443 -0.0666,0.0731 -0.16535,0.0778 l -0.002,1.1e-4 -2.05711,0.0988 q -0.0988,0.005 -0.17431,-0.0618 -0.0732,-0.069 -0.0778,-0.16535 z"
       style="font-weight:bold;font-size:4.93889px;line-height:1.25;font-family:Manjari;-inkscape-font-specification:'Manjari Bold';letter-spacing:0.264583px;fill:#ffffff;stroke-width:0.264583"
       id="path12794" />
    <path
       d="m 137.2016,246.91293 -2.5663,0.35014 q -0.0957,0.0124 -0.1761,-0.0452 -0.0808,-0.06 -0.0938,-0.16049 -0.0124,-0.0957 0.0345,-0.16497 l 1.98534,-2.89621 -2.15444,0.28209 -0.002,3.1e-4 q -0.10283,0.0133 -0.1815,-0.0494 -0.0763,-0.0631 -0.089,-0.1611 -0.0127,-0.0981 0.0521,-0.17942 0.0645,-0.0838 0.13865,-0.0934 l 2.69346,-0.34476 q 0.0957,-0.0124 0.1764,0.0476 0.0807,0.06 0.0935,0.15809 0.0124,0.0957 -0.0345,0.16498 l -1.98533,2.89621 2.06834,-0.27092 0.002,-3.1e-4 q 0.10523,-0.0136 0.18181,0.0518 0.0766,0.0654 0.0899,0.16828 0.0112,0.0861 -0.0305,0.14013 -0.0419,0.0517 -0.0972,0.0758 -0.0549,0.0266 -0.0884,0.0309 -0.01,0.001 -0.0123,-8.4e-4 0,0 -0.005,6.2e-4 z"
       style="font-weight:bold;font-size:4.93889px;line-height:1.25;font-family:Manjari;-inkscape-font-specification:'Manjari Bold';letter-spacing:0.264583px;fill:#ffffff;stroke-width:0.264583"
       id="path12796" />
    <path
       style="fill:none;stroke:none;stroke-width:0.264583px;stroke-linecap:butt;stroke-linejoin:miter;stroke-opacity:1"
       d="m 109.38923,243.07665 c 0,0 16.4263,7.30459 31.80838,2.9 15.38208,-4.4046 15.38208,-4.4046 15.38208,-4.4046"
       id="path8896" />
  </g>
</svg>
