<?xml version="1.0" encoding="UTF-8" standalone="no"?>
<!DOCTYPE svg PUBLIC "-//W3C//DTD SVG 1.1//EN" "http://www.w3.org/Graphics/SVG/1.1/DTD/svg11.dtd">
<svg xmlns="http://www.w3.org/2000/svg" version="1.1" viewBox="0 0 935 1121" width="935.0pt" height="1121.0pt">
<path d="M 0.00 0.00 L 935.00 0.00 L 935.00 1121.00 L 0.00 1121.00 L 0.00 0.00 Z" fill="#edecea" />
<path d="M 454.22 313.02 C 454.52 314.17 454.42 315.41 454.45 316.61 C 454.89 315.40 455.35 314.19 455.78 312.97 C 458.89 311.80 460.70 315.04 463.93 312.49 C 473.30 312.46 482.75 312.79 492.08 313.74 C 543.14 318.76 592.29 340.29 630.72 374.29 C 641.64 383.73 651.09 394.12 660.40 405.08 C 660.27 405.70 659.96 406.18 659.47 406.51 L 661.08 406.38 C 662.85 408.12 664.30 410.20 665.73 412.22 C 675.98 425.80 684.79 440.58 692.02 455.99 C 692.75 457.61 693.20 458.63 692.47 460.37 C 694.46 460.14 694.44 461.63 695.10 463.00 C 706.86 490.25 713.40 519.38 714.80 549.00 C 714.81 551.43 715.25 554.13 714.55 556.45 C 715.11 557.85 715.12 558.90 714.97 560.41 C 714.12 560.48 713.27 560.55 712.42 560.61 L 712.37 561.44 C 713.93 560.17 715.67 560.78 715.00 563.00 C 714.94 575.32 713.99 587.86 711.90 600.00 C 710.60 603.39 711.21 607.46 709.85 610.97 C 706.99 624.50 703.26 638.24 697.84 650.96 C 696.96 651.18 696.48 651.54 696.41 652.04 C 696.41 654.33 694.31 652.62 694.47 654.35 C 695.78 654.35 696.27 654.89 695.95 655.99 C 689.60 671.24 681.65 685.69 672.47 699.46 L 671.35 700.35 C 670.44 703.17 668.19 705.21 666.87 707.87 C 664.32 710.08 662.92 713.15 660.53 715.54 C 646.15 733.53 628.78 749.85 610.00 763.12 C 607.52 763.35 604.12 769.09 601.49 767.48 C 601.73 768.43 601.40 769.10 600.49 769.49 C 597.60 771.24 594.75 773.06 591.89 774.85 C 591.42 774.77 590.96 774.65 590.51 774.51 C 590.53 776.53 588.44 777.27 587.38 775.41 C 586.55 776.39 586.66 778.00 585.38 778.41 C 562.90 790.75 537.18 799.80 511.92 804.45 C 511.17 803.98 510.38 803.62 509.57 803.36 L 509.21 804.92 C 502.81 805.94 496.49 807.00 490.00 807.37 C 485.34 807.57 480.34 808.59 475.72 808.12 L 475.37 806.50 L 474.50 806.41 C 474.82 806.89 475.00 807.44 475.06 808.05 L 474.05 808.41 C 467.70 808.53 461.31 808.61 454.97 808.17 C 453.62 807.90 452.93 806.68 451.65 806.44 C 451.80 807.78 451.25 808.29 450.01 807.96 C 446.67 807.71 443.28 807.53 439.95 807.19 C 437.08 806.22 434.23 806.95 431.52 805.60 C 426.23 805.61 420.77 804.05 415.51 803.32 C 411.34 801.81 405.76 801.65 401.96 799.57 C 394.73 798.56 387.85 795.57 380.97 793.25 C 379.18 792.07 374.79 792.30 375.38 789.41 C 374.61 789.74 373.83 790.05 373.06 790.36 C 370.96 789.22 368.73 788.42 366.58 787.43 C 365.94 786.67 365.08 786.29 364.00 786.30 C 352.49 780.91 341.31 775.01 330.72 767.98 C 330.43 767.04 331.07 766.54 332.63 766.47 C 332.29 766.09 331.95 765.71 331.62 765.33 C 330.80 766.10 330.39 767.19 329.06 766.83 C 326.24 764.85 323.36 762.95 320.55 760.96 L 320.63 759.88 C 321.61 759.65 322.61 759.51 323.63 759.46 C 322.07 759.35 320.63 759.77 319.10 759.89 C 273.02 725.81 239.33 675.73 225.77 620.00 C 225.50 618.02 224.28 615.81 224.71 613.87 C 225.37 613.40 226.01 612.92 226.63 612.41 C 225.82 612.63 225.01 612.84 224.19 613.03 C 222.21 604.68 220.92 596.50 220.20 587.95 C 220.06 586.12 218.56 583.05 221.27 582.51 C 219.34 582.13 219.25 580.70 219.35 579.03 C 214.90 525.31 229.06 470.61 258.53 425.53 C 274.66 400.66 295.29 378.78 319.11 361.14 C 319.62 361.18 320.09 361.31 320.53 361.52 C 320.49 360.36 320.98 359.52 322.00 359.01 C 343.86 343.34 368.34 331.13 394.09 323.32 C 395.52 323.02 397.82 321.69 399.07 322.83 C 398.70 324.09 398.50 325.27 398.40 326.58 C 400.55 324.18 401.54 326.09 403.61 326.59 C 402.96 326.09 402.30 325.60 401.62 325.14 C 401.56 324.03 401.43 322.94 401.24 321.86 L 401.85 321.07 C 406.28 320.62 409.45 318.28 414.00 318.36 C 414.95 318.57 415.79 318.31 416.54 317.58 C 426.32 315.47 436.11 314.07 446.09 313.39 L 447.25 313.75 C 447.34 314.37 447.42 314.99 447.50 315.62 L 447.73 313.70 C 449.76 313.01 452.10 312.74 454.22 313.02 Z" fill="#010101" />
<path d="M 413.65 320.27 C 413.20 322.15 413.15 323.59 415.54 323.66 C 415.27 324.48 415.06 325.31 414.92 326.14 C 416.71 326.75 419.89 325.57 421.47 324.49 C 421.97 324.67 422.47 324.86 422.97 325.04 C 425.93 324.37 429.02 323.66 432.05 323.47 C 434.13 323.23 432.63 321.26 434.43 321.40 C 434.54 322.69 435.06 323.19 435.98 322.93 C 468.80 318.80 502.16 320.90 533.93 330.28 C 567.97 340.00 599.50 357.66 626.02 381.05 C 627.65 382.99 627.87 380.51 629.56 380.39 C 628.80 381.18 627.66 381.57 628.08 382.88 C 653.43 405.95 673.76 434.44 687.27 465.92 C 687.92 467.10 687.71 468.66 689.49 468.53 C 689.31 469.01 689.13 469.50 688.95 469.99 C 691.06 474.75 692.49 479.75 694.44 484.56 C 695.29 485.72 696.11 484.17 697.10 484.88 C 697.63 484.97 698.13 484.84 698.60 484.46 L 698.52 485.45 C 696.81 485.24 694.53 484.43 695.01 487.21 C 695.74 487.61 696.54 487.70 697.39 487.48 C 696.45 487.59 695.88 488.08 695.67 488.93 C 698.00 495.84 699.61 503.01 701.17 510.14 C 701.66 510.71 702.47 510.82 703.59 510.46 C 702.71 511.20 701.84 511.67 701.77 512.96 C 703.16 518.89 704.02 524.94 704.58 531.01 C 706.28 541.92 706.56 553.02 706.40 564.08 C 706.77 565.23 707.73 565.71 708.58 566.46 L 706.80 566.82 C 706.94 567.44 707.19 568.00 707.54 568.51 L 706.22 568.89 C 706.07 574.10 705.60 579.28 705.28 584.48 C 704.15 589.56 704.10 594.91 703.10 600.02 C 701.71 605.26 701.16 610.75 699.74 616.00 C 695.84 632.52 689.42 649.82 681.96 665.01 C 681.55 666.17 680.57 667.30 681.50 668.49 C 679.73 667.78 678.43 671.58 678.21 672.88 C 679.41 673.48 680.97 673.04 680.81 674.84 C 679.89 674.95 678.95 674.52 677.99 673.55 C 675.87 675.41 674.90 678.75 673.21 681.08 C 672.01 682.54 673.41 683.48 671.33 684.27 C 659.03 704.15 644.62 721.59 627.20 737.23 C 626.79 737.87 626.57 738.61 626.52 739.45 C 624.64 739.19 623.76 740.38 622.40 741.40 C 612.05 750.31 600.78 758.26 589.05 765.23 C 589.16 765.69 589.32 766.13 589.53 766.57 C 586.69 765.86 585.26 767.59 582.95 768.76 C 575.00 773.07 566.85 777.10 558.47 780.49 C 554.71 782.39 550.63 783.09 547.03 785.31 C 543.81 785.54 541.12 787.19 538.01 787.96 C 529.10 790.46 520.12 792.96 511.00 794.55 C 509.76 794.86 507.67 794.74 506.91 795.92 C 505.86 797.37 505.21 796.38 504.06 795.71 C 481.60 799.17 458.38 799.56 435.87 796.39 C 435.30 796.64 434.83 796.99 434.47 797.45 C 433.63 795.49 429.33 795.40 427.56 795.61 C 427.34 796.87 427.61 797.93 426.38 798.68 C 426.29 797.41 426.83 796.42 427.06 795.21 C 419.01 793.35 410.82 792.26 402.94 789.68 C 402.47 789.95 402.00 790.23 401.53 790.50 L 401.11 789.21 C 385.91 784.80 371.11 778.88 357.08 771.60 C 356.18 771.14 355.41 770.81 354.50 771.50 C 354.72 770.57 354.34 769.93 353.36 769.59 C 318.36 750.51 288.24 722.84 266.68 689.29 C 266.22 688.45 265.52 687.83 264.60 687.43 C 264.64 686.47 264.41 685.64 263.90 684.94 C 262.19 685.28 262.84 685.93 261.46 684.59 C 262.02 684.26 262.46 683.77 262.78 683.14 C 253.26 667.34 245.50 650.56 239.86 633.00 C 222.90 580.81 224.71 522.98 245.03 472.00 C 254.62 447.50 268.60 424.67 285.61 404.62 C 308.39 377.85 337.07 356.62 368.98 341.93 C 370.97 341.20 370.75 340.26 370.43 338.43 L 371.44 338.41 C 371.22 340.15 371.73 340.77 372.94 340.28 C 377.29 338.17 382.22 336.99 386.40 334.47 C 389.40 334.12 392.27 332.82 395.17 331.96 C 396.53 330.15 393.97 328.72 396.61 327.37 C 396.60 328.96 394.25 330.67 396.96 331.34 C 400.20 329.72 404.53 329.64 408.09 328.30 C 409.18 328.20 409.65 327.59 409.51 326.48 C 409.98 326.84 410.45 327.20 410.92 327.55 C 412.68 326.94 415.27 327.62 414.84 324.85 C 413.53 323.63 413.58 321.95 411.89 321.20 C 409.77 319.77 412.83 320.26 413.65 320.27 Z" fill="#edecea" />
<path d="M 467.07 324.47 C 469.00 325.23 468.71 326.84 468.54 328.52 L 469.54 328.61 C 469.19 328.06 468.97 327.46 468.87 326.78 C 472.07 326.72 469.01 324.61 471.95 324.51 C 493.76 325.07 516.39 328.39 537.21 335.01 C 537.87 335.56 537.95 336.42 537.46 337.59 C 538.17 336.55 538.52 335.80 539.97 335.90 C 574.67 347.13 606.54 366.42 632.49 392.08 C 632.27 392.68 631.92 393.16 631.44 393.51 C 632.96 393.12 633.45 394.45 635.03 394.62 C 662.39 422.17 682.06 455.90 693.25 493.07 C 693.01 493.54 692.76 494.02 692.52 494.50 L 693.71 495.14 C 695.47 499.67 696.01 504.42 697.34 509.06 C 697.05 509.82 696.76 510.58 696.45 511.34 C 697.59 511.28 698.19 511.81 698.24 512.94 C 700.79 526.26 702.26 539.60 702.68 553.16 C 701.25 555.23 701.36 553.79 702.73 555.83 C 702.73 560.26 702.63 564.69 702.60 569.12 C 701.17 570.96 701.19 570.00 702.51 571.90 C 702.01 574.54 702.61 577.53 701.65 580.01 C 700.48 581.07 698.63 578.93 697.05 579.21 C 695.84 580.93 694.76 581.85 693.38 579.58 C 691.75 580.68 693.91 581.72 691.72 582.50 C 692.95 582.34 694.17 582.29 695.40 582.34 C 696.78 579.43 701.49 579.30 701.76 582.90 C 700.63 592.51 699.33 601.62 697.21 611.06 C 697.12 612.16 696.55 612.65 695.50 612.52 C 695.91 612.92 696.26 613.37 696.54 613.88 C 694.99 620.73 692.83 627.38 690.81 634.09 L 689.94 634.95 C 689.32 634.51 688.80 634.00 688.36 633.42 C 688.49 635.10 690.57 635.05 689.67 637.03 C 689.17 638.74 688.64 640.42 687.85 642.03 C 686.58 641.79 685.07 641.86 684.43 640.49 C 684.10 640.82 683.76 641.14 683.43 641.46 C 684.71 641.14 685.86 642.62 687.17 642.80 L 687.23 643.95 C 685.93 646.38 685.53 649.56 683.68 651.59 C 683.33 652.90 683.08 654.20 682.47 655.44 C 674.57 673.00 664.61 689.60 652.70 704.74 C 652.33 705.44 651.59 705.69 650.49 705.50 C 650.74 705.93 650.89 706.41 650.95 706.93 C 634.89 726.85 615.57 744.26 593.99 758.01 C 591.88 759.81 592.03 757.44 590.36 757.36 C 590.66 758.18 590.88 759.00 591.00 759.83 C 564.32 776.45 534.05 787.46 503.01 792.18 C 500.44 792.79 497.92 792.25 495.50 793.34 C 487.99 794.08 480.55 794.57 473.01 794.75 C 471.82 794.98 471.00 794.59 470.52 793.55 C 469.92 795.49 466.06 795.43 466.41 793.10 C 466.49 792.59 466.17 792.32 465.44 792.27 L 465.53 794.46 C 456.05 795.13 445.28 793.80 435.81 792.85 C 435.47 792.17 435.37 791.42 435.52 790.59 C 435.39 791.57 434.93 792.24 434.12 792.61 C 432.63 791.96 430.01 792.84 430.35 790.43 C 429.00 790.76 428.62 792.10 426.99 791.45 C 425.74 791.09 423.71 791.22 422.89 790.11 C 422.21 788.97 420.99 790.03 420.03 790.11 C 402.34 786.49 385.25 780.78 368.79 773.35 C 367.77 773.10 367.34 772.48 367.50 771.50 C 366.11 772.57 363.94 770.81 362.54 770.38 C 355.39 766.73 348.31 762.78 341.52 758.48 C 340.71 758.20 340.41 757.46 340.62 756.29 C 338.30 757.03 337.25 755.62 335.46 754.52 C 333.58 753.73 335.58 752.74 335.56 751.49 L 334.56 751.42 C 334.82 753.98 333.30 753.02 331.99 752.14 C 309.67 736.42 290.18 716.86 274.47 694.54 C 273.80 693.10 273.13 692.14 272.06 691.00 C 264.34 679.61 257.74 667.53 252.12 654.98 C 250.87 653.44 252.71 652.40 252.52 650.49 C 252.06 650.82 251.54 651.06 250.97 651.20 C 249.61 649.86 249.21 647.57 248.28 645.90 C 238.15 619.86 232.31 591.97 232.04 564.00 C 231.17 527.00 239.47 490.02 255.69 456.78 C 270.10 426.99 290.96 400.56 316.29 379.30 C 317.67 377.67 319.86 378.42 320.57 380.28 C 320.52 379.79 320.47 379.30 320.42 378.81 C 319.74 378.45 319.17 377.95 318.72 377.33 C 323.03 373.76 327.52 370.42 332.09 367.20 C 332.90 366.84 333.42 367.27 333.65 368.50 C 335.86 368.93 333.69 366.05 334.94 365.16 C 344.95 358.49 355.30 352.48 366.15 347.28 C 368.86 346.07 371.97 343.90 374.99 344.20 C 376.53 342.13 378.74 341.80 381.00 340.91 C 392.40 336.39 404.20 332.69 416.20 330.13 C 416.76 330.51 417.19 330.98 417.50 331.54 C 417.24 330.25 417.72 329.58 418.94 329.54 C 421.68 328.90 425.07 327.81 427.84 328.25 C 428.92 329.44 427.28 330.07 426.39 330.52 C 427.79 330.96 429.97 331.27 429.39 333.27 C 428.36 333.52 426.46 333.48 426.58 335.02 C 426.70 336.18 426.74 337.33 426.68 338.49 C 426.98 338.86 427.28 339.23 427.58 339.60 C 427.49 338.04 425.62 336.30 428.42 336.36 C 428.12 335.35 428.20 334.43 428.67 333.61 C 429.69 333.44 431.95 333.18 431.36 331.59 C 430.25 330.43 428.31 329.52 429.70 327.70 C 441.87 325.11 454.65 324.78 467.07 324.47 Z" fill="#010101" />
<path d="M 444.01 339.78 C 446.17 339.63 447.15 342.20 445.68 343.65 C 443.51 344.42 441.45 345.09 439.77 346.76 C 437.74 348.72 437.40 351.08 436.61 353.63 C 435.73 354.47 434.47 354.79 433.49 355.51 C 433.62 350.55 424.64 349.37 422.12 353.10 C 420.83 354.81 417.96 353.27 418.38 351.28 C 419.42 348.38 422.83 347.17 425.59 346.59 C 425.91 345.86 426.22 345.12 426.52 344.38 C 427.13 345.85 426.77 346.52 428.51 345.46 C 429.02 348.41 431.40 347.08 431.51 344.71 C 431.79 346.26 431.51 348.34 433.80 347.87 C 435.69 344.04 439.60 340.24 444.01 339.78 Z" fill="#edecea" />
<path d="M 449.26 354.34 C 449.98 354.22 450.15 354.68 449.78 355.70 C 448.99 355.83 448.82 355.38 449.26 354.34 Z" fill="#edecea" />
<path d="M 468.01 356.01 C 469.15 360.45 470.30 364.81 472.22 369.00 C 472.66 369.68 473.49 369.82 474.72 369.42 C 474.42 370.27 474.10 371.11 473.76 371.93 C 476.92 376.73 480.98 380.60 487.01 380.91 C 490.06 381.58 490.26 386.50 487.00 386.98 C 478.84 386.79 472.20 381.29 468.39 374.40 C 468.65 378.65 470.90 382.97 472.37 386.94 C 475.34 393.18 480.09 399.79 487.05 401.78 C 488.93 402.64 491.19 402.05 492.84 403.20 C 494.82 404.54 494.59 408.32 491.98 408.73 C 484.71 408.98 477.38 404.57 472.86 399.07 C 470.69 396.74 469.42 393.69 467.40 391.37 C 470.47 401.66 474.44 412.04 482.30 419.72 C 486.58 424.15 492.01 427.12 498.03 428.38 C 499.82 428.68 502.05 428.47 503.64 429.37 C 505.65 431.13 505.04 434.93 502.01 434.89 C 489.57 434.51 478.59 427.30 471.90 417.01 C 469.79 414.98 469.68 411.97 467.43 410.34 C 467.48 411.96 467.43 413.49 468.11 415.01 C 471.13 424.96 476.10 434.13 483.43 441.57 C 490.29 448.33 499.15 452.75 509.01 451.35 C 511.87 450.55 514.16 453.35 513.08 456.01 C 512.05 457.98 509.83 457.32 508.00 457.63 C 502.79 458.10 497.81 456.97 492.96 455.17 C 482.36 450.70 473.81 441.51 468.41 431.52 C 468.12 431.12 467.81 430.74 467.47 430.38 C 467.58 432.37 467.24 434.14 468.07 436.01 C 470.78 445.05 474.65 453.92 481.07 460.97 C 486.43 466.94 493.92 470.86 502.00 471.21 C 505.87 471.21 505.53 477.55 502.03 477.54 C 496.39 476.81 491.02 475.68 486.02 472.84 C 478.30 468.58 472.86 461.81 468.72 454.17 L 467.91 454.01 L 467.55 454.94 C 467.57 465.98 467.60 477.01 467.54 488.05 C 467.45 489.14 468.11 489.67 469.52 489.63 L 469.51 490.34 C 466.63 490.00 467.83 492.78 467.52 494.55 C 466.52 497.04 464.69 496.84 462.41 496.59 C 461.73 495.41 461.41 494.21 461.45 493.00 C 461.54 480.12 461.32 467.22 461.57 454.35 C 460.30 454.92 459.98 456.09 459.26 457.18 C 454.34 465.43 447.32 472.16 438.11 475.33 C 431.13 478.78 422.68 477.44 416.02 473.85 C 408.15 469.57 402.93 462.91 398.40 455.37 C 398.09 457.02 399.11 458.84 399.52 460.45 C 401.95 468.66 406.20 477.63 412.96 483.14 C 416.75 486.22 421.17 487.80 426.00 488.25 C 429.21 488.13 430.24 493.31 427.03 494.31 C 415.90 494.70 406.39 487.26 400.74 478.19 C 400.05 477.34 399.41 475.32 398.25 475.17 C 398.29 486.44 398.34 497.76 398.23 509.03 C 397.58 512.01 392.83 512.01 392.26 508.94 C 392.01 499.03 392.20 488.94 392.16 479.00 C 392.21 478.01 392.07 477.10 391.75 476.25 C 390.09 478.14 388.63 481.25 386.44 483.45 C 381.12 489.88 372.40 494.65 363.97 494.28 C 361.09 493.45 362.02 490.23 363.51 488.53 C 366.84 487.87 370.02 487.99 373.08 486.27 C 382.15 482.10 387.09 472.84 390.51 463.95 C 391.26 461.40 392.44 459.03 392.46 456.45 C 391.18 456.38 391.27 457.67 390.61 458.55 C 384.46 468.53 374.29 477.26 362.00 477.29 C 360.01 477.09 356.57 477.56 355.28 475.75 C 354.24 473.24 356.23 470.44 359.00 470.99 C 365.12 471.86 371.22 469.94 376.03 466.13 C 382.76 460.80 387.50 452.84 390.61 444.95 C 391.07 443.28 392.43 440.98 391.73 439.27 C 390.66 440.04 390.15 442.00 389.17 443.04 C 383.44 451.31 374.35 457.75 363.96 457.35 C 360.89 456.61 361.73 450.99 365.00 451.31 C 371.87 450.91 377.89 447.42 382.20 442.15 C 386.37 437.10 389.93 429.67 391.60 423.36 C 389.10 426.35 386.93 429.41 383.53 431.52 C 380.32 433.44 376.25 435.28 372.44 434.55 C 369.59 433.01 370.86 428.63 374.03 428.49 C 379.14 428.18 383.02 424.93 385.78 420.85 C 388.27 416.78 390.45 412.05 391.59 407.41 C 389.44 409.59 387.81 412.02 384.94 413.63 C 382.00 414.76 379.71 416.18 376.40 415.59 C 373.71 414.19 374.59 410.13 377.47 409.58 C 380.16 409.28 382.49 408.34 384.40 406.40 C 389.22 401.68 391.31 393.90 392.50 387.47 C 393.95 385.54 397.08 385.43 398.48 387.48 C 399.73 392.51 400.62 397.28 403.28 401.83 C 405.48 405.87 408.71 409.18 413.53 409.57 C 416.78 410.01 417.45 415.15 413.99 415.73 C 408.64 415.81 403.50 412.48 400.37 408.28 C 399.80 409.87 401.08 411.92 401.53 413.45 C 403.81 418.96 407.21 425.27 413.05 427.62 C 415.25 428.66 418.52 427.88 419.78 430.14 C 421.23 431.96 420.04 434.22 417.98 434.73 C 413.85 434.80 409.64 433.07 406.34 430.65 C 403.43 428.68 401.83 425.76 399.40 423.37 C 401.65 430.58 405.04 438.16 410.29 443.72 C 415.15 448.83 421.86 451.99 429.01 451.20 C 436.98 449.68 444.21 444.65 449.05 438.27 C 452.76 434.61 455.37 429.55 457.77 424.96 C 459.60 420.33 462.00 416.52 461.53 411.37 C 458.70 415.27 456.45 419.48 453.12 423.08 L 453.01 424.07 C 453.53 424.23 454.05 424.39 454.57 424.55 C 451.15 423.50 450.31 426.20 447.79 427.75 C 441.92 432.11 434.38 435.04 427.01 434.84 C 423.70 433.93 424.56 428.73 427.99 428.76 C 435.70 428.32 442.84 424.69 448.12 419.12 C 454.76 412.09 459.03 402.58 461.62 393.38 L 460.57 393.52 C 456.89 400.58 450.57 405.97 442.97 408.33 C 440.98 408.28 437.60 409.64 436.19 407.82 C 434.48 405.88 436.07 402.87 438.46 402.58 C 442.84 402.28 446.50 400.63 449.75 397.74 C 456.37 391.55 458.85 383.68 461.54 375.35 C 460.12 375.34 460.17 376.45 459.40 377.40 C 455.64 382.80 449.66 386.69 442.99 386.99 C 440.36 386.97 439.73 383.81 441.03 381.98 C 441.64 380.78 443.81 380.82 444.97 380.55 C 450.18 379.70 454.20 375.04 456.59 370.62 C 457.45 368.74 458.78 367.04 458.57 364.93 C 460.45 362.25 461.11 358.67 461.57 355.49 C 462.95 353.03 467.33 353.00 468.01 356.01 Z" fill="#edecea" />
<path d="M 361.39 357.37 C 361.63 357.64 361.63 357.64 361.39 357.37 Z" fill="#edecea" />
<path d="M 526.01 361.12 C 527.17 361.11 527.89 361.73 528.18 362.99 C 528.46 365.18 527.07 365.02 525.49 365.56 C 522.46 366.42 519.94 369.02 518.71 371.86 C 518.11 373.02 517.91 374.02 516.52 374.48 C 514.97 374.80 514.36 373.27 513.72 372.18 C 512.52 369.56 509.56 368.31 506.97 367.56 C 505.40 367.17 502.39 367.81 501.69 366.03 C 501.30 365.09 501.51 364.18 502.30 363.30 C 504.30 362.59 506.93 363.51 509.01 363.73 C 511.93 364.22 513.59 366.22 516.00 367.55 C 518.79 364.41 521.51 361.42 526.01 361.12 Z" fill="#edecea" />
<path d="M 512.01 406.93 C 514.69 407.98 517.17 409.81 519.04 412.00 C 519.97 412.95 520.41 414.16 521.95 414.09 C 525.08 412.49 528.48 411.67 532.00 412.10 C 533.40 412.41 533.46 414.71 532.68 415.68 C 531.29 416.34 529.53 416.19 528.03 416.48 C 525.40 416.90 523.31 418.18 521.04 419.45 C 519.14 420.11 518.35 418.84 517.59 417.37 C 516.20 414.86 514.08 412.84 511.58 411.45 C 510.44 410.72 509.12 410.61 509.00 409.00 C 509.25 407.50 510.49 406.63 512.01 406.93 Z" fill="#edecea" />
<path d="M 418.40 408.41 C 418.60 408.61 418.60 408.61 418.40 408.41 Z" fill="#edecea" />
<path d="M 552.04 411.00 C 553.08 415.49 554.48 420.12 556.73 424.15 C 558.84 428.43 562.30 432.33 567.03 433.65 C 568.31 434.03 570.18 433.83 571.21 434.73 C 573.09 436.22 572.74 439.94 570.02 440.20 C 565.06 440.32 560.16 437.75 556.69 434.31 C 555.09 432.80 554.06 430.85 552.40 429.38 C 553.81 434.04 555.39 438.96 558.11 443.03 C 558.64 442.92 559.15 442.73 559.64 442.46 C 559.44 443.26 559.26 444.07 559.11 444.89 C 562.53 449.88 567.33 453.67 573.51 454.31 C 576.00 454.60 577.05 455.40 576.92 458.01 C 576.70 461.24 573.08 460.25 570.90 460.17 C 570.76 460.65 570.62 461.14 570.48 461.63 C 570.44 460.38 569.96 459.72 569.05 459.66 C 561.67 457.65 555.98 451.94 552.39 445.38 C 552.25 447.30 553.23 449.19 553.84 451.05 C 555.35 454.46 556.61 457.92 558.64 461.08 C 563.35 469.56 571.13 476.68 580.99 478.14 C 582.90 478.57 585.04 477.99 586.33 479.74 C 587.81 481.50 586.63 485.14 584.01 484.62 C 582.73 484.45 581.83 485.18 580.65 485.54 L 580.08 484.24 C 567.76 482.38 557.70 473.60 552.40 462.55 L 551.48 462.41 C 551.63 465.68 553.34 468.87 554.38 471.95 C 558.83 482.01 565.27 491.18 575.06 496.63 C 579.24 498.53 583.28 500.03 587.98 499.71 C 593.31 497.41 597.66 493.62 601.15 489.03 C 602.94 486.60 605.13 483.29 605.61 480.32 C 599.42 488.65 589.90 493.55 579.51 493.44 C 577.05 491.61 577.65 487.25 581.00 487.24 C 591.74 486.97 600.81 478.91 604.64 469.33 C 601.50 471.95 598.58 474.47 594.50 475.57 C 592.19 476.18 588.46 477.41 586.52 475.50 C 585.65 473.24 586.44 470.78 589.03 470.39 C 596.29 470.17 602.53 463.89 604.64 457.34 C 602.44 458.85 600.74 460.68 598.05 461.35 C 596.02 462.01 592.16 463.37 590.51 461.54 C 590.27 459.84 588.40 458.66 587.55 460.72 C 587.56 462.56 584.97 464.97 588.56 464.58 L 588.52 465.45 C 587.41 465.44 585.53 465.57 585.54 464.01 C 585.71 463.52 586.14 463.08 586.81 462.71 C 587.93 460.70 586.67 460.13 586.39 458.39 C 587.61 458.68 588.41 459.99 589.71 459.06 C 590.90 457.65 590.72 456.26 593.00 456.29 C 600.51 455.80 604.99 447.59 606.32 441.03 C 607.07 438.24 611.96 438.11 612.68 441.10 C 613.71 443.10 613.71 447.48 616.60 447.45 C 616.33 447.95 616.07 448.45 615.80 448.95 C 618.26 452.81 621.18 455.84 626.00 456.25 C 629.55 455.97 630.65 461.84 627.03 462.45 C 622.00 462.57 618.25 460.22 614.37 457.36 C 616.46 462.53 620.59 467.77 626.04 469.66 C 628.30 470.50 630.89 469.79 632.37 471.67 C 633.85 473.68 632.71 476.70 630.01 476.53 C 624.61 476.26 618.77 473.96 615.38 469.61 L 614.39 469.33 C 618.38 478.04 625.24 485.24 635.01 486.88 C 636.95 487.36 639.32 486.72 640.58 488.40 C 641.65 490.22 641.39 492.82 639.04 493.38 C 634.09 493.44 629.44 492.15 624.96 490.12 C 620.24 487.78 616.82 484.20 613.38 480.33 C 617.74 493.10 631.06 503.55 645.01 501.80 C 648.34 501.81 649.22 506.72 645.84 507.71 C 641.14 508.64 635.97 508.11 631.46 506.52 C 623.86 504.13 618.57 499.08 613.38 493.31 C 613.48 495.83 615.20 498.46 616.43 500.60 C 620.41 507.38 627.03 513.06 634.99 514.25 C 636.65 514.64 638.51 514.20 639.85 515.19 C 641.97 516.57 641.60 520.28 638.99 520.79 C 630.27 520.83 621.45 516.85 615.70 510.29 C 614.53 509.03 613.67 507.54 612.43 506.36 C 612.34 514.11 612.47 521.86 612.40 529.61 C 623.31 532.25 634.17 534.87 645.00 538.02 C 646.26 538.41 647.55 538.64 648.30 539.84 C 649.73 542.01 647.62 545.30 644.99 544.45 C 640.29 543.26 635.67 541.74 630.95 540.63 L 629.91 540.91 C 629.76 541.46 629.61 542.01 629.46 542.56 C 629.75 541.54 629.67 540.71 629.21 540.06 C 613.23 536.07 597.26 532.62 581.02 529.82 C 577.58 528.98 578.85 524.05 581.99 523.86 C 587.52 524.41 592.98 525.88 598.48 526.69 C 600.83 527.06 603.58 528.34 605.92 527.95 C 606.42 523.71 606.03 519.28 606.14 515.00 C 606.03 512.74 606.45 510.26 605.88 508.06 L 605.24 508.19 C 599.22 516.11 589.98 520.87 580.02 520.75 C 576.72 519.76 577.65 514.66 581.02 514.55 C 591.42 514.32 599.82 507.06 604.14 498.02 C 604.82 496.49 606.10 495.02 605.64 493.27 C 603.03 496.48 600.30 499.45 596.84 501.77 C 595.02 502.64 594.93 504.72 593.04 505.37 C 590.82 505.51 588.18 505.77 586.48 507.36 C 582.24 507.67 576.94 509.00 572.51 507.43 C 570.33 505.87 571.40 504.03 572.03 502.00 C 563.83 496.93 556.84 490.22 552.42 481.54 L 551.51 481.41 C 551.71 494.40 551.68 507.96 551.67 520.98 C 551.23 523.52 548.82 522.89 547.08 524.66 C 542.05 524.57 537.03 523.61 531.99 523.39 C 493.48 519.29 455.21 519.15 416.53 520.75 C 410.55 521.54 404.42 521.21 398.47 522.25 C 395.00 522.46 391.46 522.53 388.03 523.13 C 387.95 524.18 389.84 524.76 390.56 525.34 C 398.12 529.51 405.95 533.06 414.02 536.11 C 415.51 535.72 415.67 533.86 417.47 533.58 C 432.70 532.68 448.76 532.14 464.00 532.28 C 467.62 532.25 467.81 537.59 464.54 538.49 C 450.81 538.49 437.11 538.76 423.40 539.43 C 425.68 540.75 428.20 541.37 430.60 542.44 C 437.70 545.17 444.94 548.62 451.99 551.24 C 459.67 550.94 467.33 551.52 475.01 551.37 C 477.62 551.81 480.42 551.11 482.69 552.33 C 483.88 553.29 483.82 554.51 484.17 555.88 C 488.34 553.20 493.21 556.91 494.34 560.98 C 494.98 564.71 489.92 566.90 489.42 569.47 C 504.27 570.10 519.35 572.67 533.96 575.47 C 552.01 579.31 570.05 584.61 586.99 591.99 C 598.08 596.63 608.47 602.57 617.73 610.26 C 618.44 611.01 619.68 611.93 619.71 613.02 C 619.95 615.72 616.39 617.33 614.39 615.60 C 602.22 604.98 587.90 598.73 573.00 592.99 C 549.41 584.17 524.33 578.96 499.34 576.42 C 500.23 577.60 501.75 578.34 502.97 579.17 C 509.39 583.72 515.61 588.54 521.92 593.25 C 530.68 594.39 537.58 596.50 546.07 598.74 C 554.77 601.51 563.68 604.27 571.96 608.15 C 585.74 613.88 599.08 621.72 609.18 632.87 C 616.97 642.00 623.12 653.64 621.48 666.00 C 619.90 677.29 612.74 687.87 604.51 695.50 C 602.92 696.72 603.42 697.74 603.52 699.44 C 603.42 698.33 602.95 697.71 602.10 697.57 C 599.13 700.13 595.99 702.54 592.68 704.65 C 591.45 705.51 590.16 705.99 589.44 707.41 L 587.98 707.61 C 582.76 710.51 577.44 713.41 571.91 715.67 C 566.77 717.07 562.11 719.66 557.04 721.28 C 539.64 727.68 520.82 731.25 502.48 733.61 C 493.63 735.28 485.00 736.17 476.00 736.53 C 445.97 738.12 415.42 736.12 386.00 729.94 C 358.55 724.30 331.38 714.46 309.51 696.47 C 308.29 695.62 307.69 694.51 308.14 693.01 C 308.91 690.98 311.67 690.12 313.34 691.64 C 337.87 711.84 368.17 720.82 398.95 726.19 C 409.82 727.67 420.17 729.36 431.01 729.68 C 442.66 730.89 454.40 730.64 466.12 730.67 C 468.28 729.36 467.67 729.07 469.90 730.56 C 476.77 730.24 483.64 729.84 490.49 729.30 C 493.61 728.72 496.56 728.91 499.50 727.63 C 517.31 725.86 535.14 722.32 552.05 716.38 C 558.43 714.52 564.16 711.29 570.61 709.56 C 576.82 706.47 583.08 703.60 588.89 699.76 L 589.19 698.69 L 587.47 698.49 C 588.26 697.95 588.65 697.28 588.64 696.49 L 589.38 696.47 C 589.22 698.22 589.74 698.89 590.93 698.49 C 599.52 692.46 607.00 685.41 611.85 675.98 C 615.23 669.55 616.61 662.13 614.62 655.04 C 611.99 646.16 606.71 638.34 599.76 632.25 C 591.40 624.92 581.41 619.27 571.38 614.57 C 559.57 609.37 546.86 604.83 534.25 602.24 L 534.37 602.69 C 544.88 610.17 555.79 617.02 567.47 622.54 C 569.82 623.99 568.97 626.31 567.28 627.90 C 567.94 630.63 567.53 633.45 568.12 636.12 C 569.63 635.53 569.42 635.58 570.98 636.03 C 571.90 634.98 572.42 633.94 573.99 633.84 C 576.20 633.67 576.28 635.91 578.61 635.58 C 578.54 636.81 577.41 636.92 577.07 638.00 C 576.80 639.03 576.30 639.85 575.56 640.45 C 574.87 640.43 574.17 640.41 573.47 640.41 C 572.17 639.40 571.40 638.56 570.86 636.97 C 569.90 637.05 568.98 637.34 568.08 637.82 C 568.35 642.52 568.24 647.94 569.71 652.41 C 571.83 653.93 571.94 651.47 573.65 651.33 C 572.69 652.07 572.29 652.84 572.45 653.65 C 571.58 653.36 570.71 653.08 569.83 652.82 C 569.40 653.75 569.33 654.81 569.62 656.01 C 570.13 662.85 570.63 669.76 569.55 676.55 C 570.84 676.64 571.33 674.88 572.16 674.07 C 576.36 668.76 578.63 661.75 576.74 655.07 C 576.31 653.32 575.19 651.77 574.98 649.99 C 575.06 647.48 578.45 645.83 580.23 647.79 C 582.00 650.55 583.07 654.12 583.66 657.34 L 585.00 657.97 C 585.56 657.48 586.10 656.98 586.62 656.44 C 586.46 658.23 585.29 658.31 583.81 658.69 C 583.34 660.07 583.54 661.33 584.40 662.47 C 583.10 663.61 583.18 665.39 582.62 666.96 C 580.32 675.01 574.85 681.37 568.12 686.16 C 566.27 689.50 565.78 693.08 563.16 696.03 C 560.14 700.28 556.10 703.21 551.00 704.46 C 547.16 703.85 544.37 701.66 540.96 700.03 C 518.74 707.60 496.39 711.29 473.00 712.53 C 444.73 714.15 416.43 712.00 388.93 705.28 C 373.85 701.55 359.28 696.34 346.27 687.70 C 339.01 682.81 331.71 675.61 329.24 667.00 C 328.03 663.52 333.80 661.83 334.99 665.02 C 336.90 670.41 340.01 674.93 344.33 678.66 C 351.54 684.93 360.34 688.96 369.05 692.61 C 383.52 698.11 398.73 701.75 414.05 703.79 C 416.42 704.08 419.07 704.90 421.41 704.42 C 421.82 703.16 421.85 701.81 421.50 700.37 C 422.91 701.79 422.56 703.16 422.65 704.98 C 424.44 705.15 426.21 705.32 428.01 705.34 C 448.14 707.55 468.86 707.02 489.01 705.09 C 490.21 705.23 490.76 704.68 490.67 703.45 C 492.00 703.73 492.39 705.02 494.01 704.47 C 506.55 702.82 518.81 700.39 530.94 696.73 C 531.79 696.53 532.11 696.05 531.91 695.27 C 527.33 692.62 521.62 690.00 517.68 687.36 C 512.91 684.89 507.91 681.55 503.01 679.60 C 490.85 682.29 478.41 684.09 465.97 684.76 C 464.91 684.66 464.38 685.25 464.38 686.52 L 463.45 686.62 C 463.75 686.15 463.94 685.67 464.05 685.15 C 457.45 684.90 450.54 684.94 443.93 685.15 C 444.08 685.98 444.54 686.43 445.33 686.51 C 444.26 686.73 443.45 687.52 442.38 687.65 C 442.91 687.12 443.43 686.59 443.95 686.06 L 443.20 684.95 C 438.72 684.21 434.35 684.87 429.95 683.72 C 427.59 684.66 428.29 684.68 426.13 683.39 C 415.43 681.67 404.89 679.83 394.53 676.52 C 384.79 674.21 373.59 669.46 367.25 661.41 C 366.46 663.01 366.02 662.44 364.47 662.47 C 364.12 660.49 366.49 662.26 365.93 660.03 C 364.19 657.81 363.37 655.34 362.23 652.82 C 362.43 649.88 362.24 647.16 363.42 644.37 C 365.81 638.85 370.06 635.01 374.98 631.75 C 375.76 628.91 376.08 632.02 378.04 629.91 C 377.93 629.36 377.73 628.84 377.44 628.33 C 378.31 628.37 379.14 628.64 379.94 629.14 C 384.60 626.75 389.55 625.25 394.45 623.47 C 395.91 623.02 397.54 622.16 399.06 622.47 C 401.76 623.37 401.59 628.05 398.60 628.56 C 388.05 631.97 377.38 635.05 370.34 644.33 C 367.41 648.36 368.21 653.12 371.23 656.81 C 376.73 663.71 384.90 667.21 393.10 669.78 C 393.96 669.82 394.43 669.45 394.49 668.66 C 394.56 669.40 394.89 670.02 395.47 670.53 C 398.92 671.73 402.49 672.33 405.99 673.34 C 407.47 673.50 408.66 673.32 409.95 674.20 C 415.83 676.01 422.17 675.96 428.03 677.42 C 438.21 678.59 448.77 679.22 459.01 678.76 C 458.11 677.24 458.94 676.83 459.57 675.40 C 459.45 676.41 459.46 677.40 459.62 678.37 C 462.15 678.82 466.82 678.86 469.17 677.88 C 468.41 676.30 468.21 676.58 469.99 676.35 C 469.98 675.12 469.54 674.50 468.68 674.49 C 469.82 674.39 470.44 672.71 471.12 673.84 C 472.28 674.68 471.09 675.99 470.90 677.02 C 472.37 679.06 475.82 677.25 478.00 677.47 C 479.97 677.00 483.42 677.64 484.46 675.61 C 486.12 677.29 488.84 675.69 490.99 675.67 C 492.10 675.24 493.96 676.16 493.72 674.37 C 485.34 670.08 476.53 666.88 468.03 662.87 C 460.19 659.63 452.65 655.56 444.97 651.97 C 443.10 651.35 441.67 650.04 439.88 649.24 C 438.39 648.71 437.59 650.03 437.50 651.33 C 437.33 650.64 437.00 650.04 436.50 649.53 C 437.83 649.54 438.29 649.10 437.91 648.20 C 435.18 646.72 432.59 645.13 429.96 643.49 L 429.18 643.94 C 427.82 647.28 428.70 651.54 428.12 655.15 C 428.61 655.27 429.09 655.39 429.57 655.50 L 427.94 655.77 C 426.15 659.26 424.31 663.64 421.23 666.28 C 413.66 669.62 407.46 667.12 399.93 665.24 C 395.98 663.95 392.99 661.24 389.50 659.41 C 389.63 658.68 389.76 657.95 389.89 657.22 C 388.41 656.15 387.02 655.01 388.03 653.00 C 389.72 650.46 391.75 648.07 393.75 645.76 C 399.53 639.37 411.32 640.32 416.43 634.02 C 408.52 627.25 401.04 620.19 394.08 612.44 C 388.23 613.35 382.45 615.29 376.79 617.00 C 375.53 617.92 376.55 620.18 376.56 621.56 C 376.10 620.35 375.67 619.14 375.29 617.91 C 373.32 617.89 371.40 619.06 369.53 619.62 C 363.03 622.61 356.67 625.58 351.00 630.01 C 349.37 631.14 348.22 632.87 345.98 632.19 C 343.94 631.50 342.74 629.16 344.41 627.39 C 357.83 616.19 373.24 611.32 389.76 606.70 C 388.07 603.85 386.39 601.02 384.81 598.10 L 384.04 597.66 C 364.60 601.96 345.75 608.89 328.19 618.29 C 326.94 619.18 324.99 619.58 325.49 621.53 C 325.16 621.05 324.68 620.72 324.07 620.52 C 314.12 626.56 305.34 634.16 299.04 644.02 C 299.19 644.52 299.34 645.01 299.50 645.49 C 296.62 645.09 297.62 648.54 295.04 649.32 C 293.01 649.88 289.61 647.26 287.44 648.43 C 286.80 647.85 286.45 647.19 286.38 646.44 C 287.10 648.31 290.97 648.53 290.59 646.09 C 295.47 636.71 302.75 628.53 311.05 621.94 C 310.83 621.12 310.39 620.64 309.71 620.48 C 311.38 620.72 312.55 621.11 313.94 619.84 C 319.50 615.86 325.40 612.50 331.56 609.55 C 347.54 601.65 364.42 595.75 381.79 591.74 C 381.47 589.76 380.23 588.02 379.90 586.00 C 379.32 584.61 379.04 581.40 377.06 581.53 C 365.69 583.97 354.52 586.70 343.51 590.45 C 340.75 591.08 338.92 586.74 341.03 585.11 C 342.91 584.00 344.90 583.39 347.00 582.84 C 356.69 579.90 366.59 577.18 376.58 575.50 C 376.96 574.00 376.25 572.25 376.15 570.72 C 375.12 568.48 373.14 570.02 372.43 571.59 C 372.54 569.57 374.47 569.70 375.69 568.33 C 375.38 567.16 375.16 565.98 375.01 564.77 C 373.74 563.64 370.79 564.54 370.48 566.29 C 370.38 565.66 369.91 565.25 369.06 565.04 C 347.33 569.18 325.12 574.63 304.70 583.28 C 304.56 583.94 304.50 584.61 304.51 585.30 C 304.25 584.73 303.83 584.26 303.26 583.88 C 297.86 585.65 293.08 588.40 287.93 590.74 C 285.55 592.06 282.48 589.78 283.26 587.10 C 283.95 585.42 286.50 584.70 287.98 583.82 C 308.52 573.88 330.75 566.85 353.01 562.04 C 354.08 562.09 354.57 561.56 354.48 560.44 C 354.94 560.79 355.41 561.12 355.91 561.43 C 361.83 560.02 367.91 559.12 373.88 557.88 C 374.11 556.61 373.85 554.13 372.53 553.50 C 372.87 553.03 373.20 552.56 373.53 552.08 C 373.24 549.71 373.17 547.33 372.88 544.96 L 372.04 544.63 C 343.08 548.78 314.76 555.96 286.96 565.03 C 285.55 565.59 285.92 567.68 284.51 567.67 C 285.37 566.51 285.90 565.63 284.53 564.58 C 282.63 563.48 282.90 559.95 285.04 559.28 C 307.24 551.66 329.96 545.92 353.00 541.49 C 359.28 540.50 365.94 539.34 372.18 538.17 C 372.63 532.59 371.69 526.54 371.41 520.97 C 371.83 518.59 374.75 518.04 376.45 516.44 C 379.32 517.27 381.19 519.52 383.72 520.79 C 384.20 519.23 384.28 517.80 386.01 517.13 C 408.08 514.55 429.84 514.07 452.00 513.49 C 473.97 513.53 495.16 514.08 517.06 515.75 C 518.68 515.97 519.99 516.32 521.53 515.55 C 523.75 516.92 526.95 516.35 529.48 516.73 C 533.30 517.41 537.18 517.39 541.00 518.03 C 542.23 518.00 544.93 519.02 545.60 517.67 C 545.55 505.91 545.62 494.11 545.58 482.34 C 543.61 484.45 542.39 487.24 540.40 489.40 C 538.64 491.97 535.96 493.79 534.47 496.50 C 533.05 497.08 531.92 497.73 530.74 498.71 C 523.62 504.04 514.89 506.72 505.99 505.57 C 503.09 505.99 501.64 501.47 503.98 500.00 C 506.22 498.70 509.45 500.22 511.99 499.71 C 515.97 499.68 519.37 498.16 522.94 496.62 C 532.64 491.18 539.23 481.98 543.60 471.95 C 544.57 469.01 546.00 466.56 545.58 463.35 C 543.89 465.10 543.04 467.55 541.40 469.40 C 535.65 477.54 526.82 482.97 516.97 484.45 C 515.52 484.57 513.89 484.86 512.47 484.49 C 510.17 483.07 510.53 478.94 513.47 478.55 C 519.82 478.12 525.93 475.97 530.73 471.72 C 538.13 465.31 542.96 455.59 545.64 446.32 C 543.66 447.54 543.18 449.83 541.44 451.44 C 537.60 455.76 532.81 459.11 527.00 460.06 C 525.53 460.21 523.34 460.89 522.10 459.86 C 519.92 458.34 521.32 454.06 524.00 454.27 C 529.03 454.02 533.42 451.40 536.67 447.68 C 541.10 442.63 543.61 435.71 545.59 429.39 C 543.60 431.18 542.39 433.58 540.26 435.27 C 536.93 438.21 532.45 440.16 527.98 440.19 C 524.60 439.84 524.96 434.69 528.02 434.15 C 531.08 433.85 533.63 432.94 536.01 430.95 C 541.57 426.15 544.48 417.97 545.73 410.93 C 546.69 408.33 551.32 408.17 552.04 411.00 Z" fill="#edecea" />
<path d="M 359.17 425.00 C 358.95 427.44 356.71 426.77 355.17 428.16 C 353.27 429.51 354.55 431.70 352.02 432.24 C 349.20 432.15 349.02 428.89 345.56 430.60 C 344.07 432.51 341.54 431.16 341.59 428.97 C 342.97 426.01 347.28 425.26 350.05 426.41 C 351.71 426.27 352.20 424.19 353.92 423.71 L 353.53 422.55 C 354.83 423.04 359.13 422.02 359.17 425.00 Z" fill="#edecea" />
<path d="M 295.43 428.44 C 295.57 428.58 295.57 428.58 295.43 428.44 Z" fill="#edecea" />
<path d="M 461.55 432.37 C 461.48 433.75 461.50 435.14 461.43 436.52 C 458.98 444.74 455.28 453.13 449.74 459.75 C 444.75 465.65 437.81 470.21 430.00 470.98 C 424.16 471.86 418.24 468.83 413.89 465.17 C 407.55 459.64 403.01 451.81 400.19 443.96 C 399.45 441.86 398.39 439.64 398.39 437.39 C 402.47 444.45 407.12 450.70 414.60 454.43 C 416.05 455.24 416.25 454.93 415.46 456.54 C 421.47 458.23 428.02 458.18 434.00 456.07 C 444.99 452.68 453.56 444.12 459.56 434.58 C 460.32 433.57 460.05 432.32 461.55 432.37 Z" fill="#010101" />
<path d="M 325.97 438.99 C 327.80 445.33 331.62 452.66 339.00 453.32 C 342.52 453.04 343.68 458.86 340.03 459.52 C 335.09 459.53 331.09 457.42 327.37 454.36 C 329.38 459.56 333.60 464.90 339.08 466.69 C 341.42 467.59 343.45 466.88 345.46 468.54 C 346.29 470.45 346.31 472.67 344.07 473.53 C 337.31 473.82 332.26 470.55 327.37 466.35 C 330.75 474.20 337.81 481.84 346.51 483.60 C 348.31 484.10 350.13 484.17 351.97 484.40 C 354.69 484.96 355.06 489.91 352.05 490.41 C 341.74 490.44 332.60 485.43 326.39 477.33 C 327.85 482.74 332.19 488.00 336.24 491.83 C 336.67 491.70 337.11 491.57 337.54 491.44 L 337.79 493.03 C 341.16 495.60 344.98 497.30 349.04 498.46 C 352.37 499.22 355.66 498.78 359.00 498.99 C 361.58 500.09 361.67 503.73 358.92 504.74 C 355.38 505.49 351.40 505.27 347.86 504.52 C 347.36 504.76 346.91 505.07 346.54 505.47 L 346.27 504.08 C 338.02 502.05 331.64 496.55 326.29 490.28 C 328.82 500.33 337.59 509.53 348.03 511.42 C 349.58 511.69 351.44 511.47 352.83 512.22 C 354.86 513.61 354.62 517.33 351.99 517.85 C 343.75 517.92 335.33 514.34 329.65 508.35 C 328.03 506.85 326.94 504.94 325.43 503.36 C 325.27 510.48 325.44 517.61 325.33 524.72 C 326.47 525.66 328.19 524.83 329.50 524.65 C 338.82 523.07 348.12 521.45 357.51 520.35 C 359.28 520.13 361.69 519.18 362.93 521.01 C 364.49 522.91 363.34 525.59 361.00 525.98 C 336.31 529.20 312.13 533.86 288.00 540.05 C 284.69 540.99 282.52 536.33 285.41 534.42 C 296.37 531.50 307.63 528.79 318.79 526.76 C 319.61 524.43 319.01 521.48 319.19 519.00 C 319.01 514.44 319.55 509.53 318.91 505.06 C 317.82 505.05 317.17 506.73 316.39 507.39 C 310.70 513.95 301.71 518.08 293.01 517.82 C 289.76 516.88 290.55 511.68 293.99 511.74 C 303.90 511.32 311.90 504.94 316.43 496.42 C 317.21 494.60 319.14 492.33 318.63 490.29 C 311.59 499.54 300.89 505.85 289.00 505.14 C 287.02 505.16 284.09 504.51 284.19 502.00 C 284.15 499.79 285.88 498.60 288.00 498.89 C 296.66 499.67 304.92 496.06 310.87 489.87 C 314.07 486.53 317.71 481.93 318.60 477.34 C 313.49 484.41 305.68 489.14 297.01 490.20 C 295.50 490.30 293.34 490.86 292.05 489.89 C 289.83 488.37 291.21 484.02 294.00 484.30 C 304.71 484.04 313.89 475.92 317.64 466.33 C 315.47 468.05 313.59 469.98 311.06 471.22 C 307.68 473.11 303.96 473.07 300.63 474.57 C 300.32 472.41 298.39 472.05 299.40 469.37 C 300.90 466.46 303.79 467.82 306.55 466.54 C 311.13 465.06 316.51 458.96 317.63 454.36 C 315.20 456.19 312.96 458.00 309.94 458.77 C 307.99 459.28 305.03 460.28 303.41 458.59 C 302.75 457.30 302.76 455.73 303.53 454.49 C 304.63 452.85 307.17 453.55 308.93 452.72 C 314.88 450.61 318.39 443.26 319.50 437.47 C 321.43 434.94 325.54 435.67 325.97 438.99 Z" fill="#edecea" />
<path d="M 693.37 508.37 C 693.64 508.65 693.64 508.65 693.37 508.37 Z" fill="#edecea" />
<path d="M 566.30 521.32 C 567.48 520.67 569.35 520.68 570.21 521.83 C 571.89 523.72 570.73 527.15 568.00 527.03 C 564.96 527.08 563.87 523.02 566.30 521.32 Z" fill="#edecea" />
<path d="M 380.45 531.44 L 381.61 531.38 C 401.72 545.70 426.57 555.02 449.00 564.94 C 450.29 565.09 450.83 565.61 450.60 566.49 C 432.76 568.66 414.06 571.41 396.17 573.82 C 387.09 561.84 382.42 546.18 380.45 531.44 Z" fill="#010101" />
<path d="M 484.00 532.93 C 491.31 532.85 498.72 533.56 506.04 533.85 C 543.66 537.06 582.51 542.71 618.52 554.36 C 620.23 554.47 621.08 554.45 622.55 555.48 C 630.47 558.10 638.27 560.89 646.01 564.03 C 647.52 564.53 649.47 565.32 649.94 567.01 C 650.44 569.26 648.35 571.54 646.03 570.72 C 605.24 554.03 560.77 545.11 517.00 541.07 C 515.29 540.71 514.04 541.56 512.46 540.67 C 503.28 539.87 494.20 539.33 484.99 538.96 C 481.74 538.89 480.85 534.01 484.00 532.93 Z" fill="#edecea" />
<path d="M 407.40 539.69 C 416.14 543.32 425.20 546.41 433.99 549.98 C 446.85 555.28 460.10 561.03 472.34 567.63 C 473.61 568.37 472.94 570.17 471.42 569.57 C 452.80 559.03 431.62 552.13 412.42 542.52 C 410.59 541.55 408.10 540.92 406.51 539.56 C 406.32 539.34 406.62 539.38 407.40 539.69 Z" fill="#010101" />
<path d="M 509.47 552.49 C 511.90 551.65 514.57 552.11 515.08 554.99 C 515.35 558.43 510.75 559.40 508.64 557.36 C 507.27 555.90 507.74 553.45 509.47 552.49 Z" fill="#edecea" />
<path d="M 379.42 553.37 L 379.48 553.51 C 384.15 566.94 391.53 579.30 401.82 589.19 C 411.51 598.67 423.69 606.07 435.67 612.39 C 431.15 618.21 426.19 623.87 421.61 629.68 C 419.80 629.92 418.53 627.49 417.02 626.72 C 408.16 619.15 399.38 610.80 392.90 601.01 C 386.63 591.24 383.39 580.32 381.25 568.99 C 380.66 563.65 379.23 558.71 379.42 553.37 Z" fill="#010101" />
<path d="M 465.37 557.45 C 470.87 557.72 476.45 557.33 481.89 558.14 C 481.34 559.38 478.36 563.30 477.05 563.49 C 473.67 562.05 470.55 559.84 467.06 558.58 C 466.49 558.37 465.98 558.03 465.51 557.57 L 465.37 557.45 Z" fill="#010101" />
<path d="M 538.99 557.92 C 556.31 560.60 573.26 564.73 590.04 569.74 C 608.57 575.65 626.32 582.79 642.75 593.30 C 644.22 594.35 646.50 595.28 647.27 596.98 C 648.15 599.45 645.53 602.46 643.02 600.81 C 617.81 584.17 587.38 574.21 558.07 567.74 C 552.72 566.59 547.29 565.79 541.96 564.54 C 539.55 564.00 537.29 564.43 535.50 562.52 C 535.03 560.21 536.42 557.74 538.99 557.92 Z" fill="#edecea" />
<path d="M 487.61 561.34 C 488.01 562.93 486.01 563.92 485.26 565.25 C 467.05 587.38 449.34 608.89 431.19 631.14 C 428.79 634.05 426.18 637.05 424.45 640.42 C 422.53 644.08 423.21 648.09 422.72 652.00 C 422.11 655.96 419.96 658.63 417.69 661.74 C 409.72 662.99 400.88 660.30 394.44 655.53 C 393.41 654.19 395.34 652.94 396.37 652.40 C 396.77 650.12 400.16 647.07 402.61 647.60 C 403.53 645.80 405.25 645.67 407.00 645.14 C 410.55 644.29 413.96 643.16 417.01 641.09 C 423.79 636.82 428.50 629.79 433.73 623.75 C 446.01 609.03 458.58 594.59 471.01 580.01 C 476.57 573.81 481.73 567.23 487.61 561.34 Z" fill="#010101" />
<path d="M 456.69 571.13 C 458.96 571.22 460.64 569.99 462.68 571.36 C 463.47 572.00 465.91 572.67 465.89 573.78 C 462.91 574.59 459.66 574.84 456.58 575.04 C 456.36 573.68 456.39 572.37 456.69 571.13 Z" fill="#010101" />
<path d="M 685.42 571.41 C 685.59 571.59 685.59 571.59 685.42 571.41 Z" fill="#edecea" />
<path d="M 455.42 571.38 C 456.83 573.07 456.43 575.19 454.05 575.53 C 437.39 578.04 420.56 580.10 403.93 582.77 C 402.93 582.45 400.29 580.25 400.78 579.09 C 408.03 577.57 415.71 577.31 422.96 575.83 C 433.65 574.17 444.79 573.42 455.42 571.38 Z" fill="#010101" />
<path d="M 484.51 574.51 C 486.29 574.75 487.95 576.63 489.62 577.41 C 504.48 586.14 517.14 597.00 530.92 607.17 C 539.28 613.23 548.00 618.91 557.12 623.74 C 557.80 624.29 559.83 624.79 559.82 625.79 C 557.87 626.52 557.41 626.48 555.63 625.42 C 538.09 616.69 524.68 604.46 509.00 593.06 C 501.61 587.44 492.32 581.41 484.27 576.68 C 483.98 576.06 484.06 575.34 484.51 574.51 Z" fill="#010101" />
<path d="M 461.08 580.50 L 462.02 580.85 C 462.03 582.02 461.68 582.61 460.97 582.64 C 455.00 583.90 448.99 584.54 443.00 585.35 C 432.66 586.65 422.38 588.78 412.00 589.61 C 410.62 589.74 408.93 589.15 409.37 587.48 C 426.64 585.49 443.81 582.34 461.08 580.50 Z" fill="#010101" />
<path d="M 485.03 584.15 L 485.78 584.28 C 491.93 588.00 497.93 592.08 503.73 596.33 C 504.28 596.69 504.62 597.15 504.75 597.71 C 497.46 598.68 490.14 599.40 482.89 600.59 C 482.15 600.15 481.41 599.76 480.66 599.44 C 480.78 600.63 480.23 601.20 479.01 601.15 C 475.70 601.66 472.36 602.07 469.04 602.56 C 466.49 602.99 463.71 603.99 461.12 603.83 L 461.25 603.04 C 465.45 598.30 469.37 593.29 473.39 588.40 C 475.55 584.53 481.52 586.59 485.03 584.15 Z" fill="#010101" />
<path d="M 454.69 589.37 C 454.72 590.08 454.54 590.64 454.13 591.04 C 450.00 595.64 446.20 600.54 441.99 605.05 C 441.14 604.91 440.29 604.72 439.46 604.47 C 439.49 605.96 441.73 606.25 439.79 607.79 C 432.57 604.70 424.92 599.98 418.34 595.60 L 418.38 594.51 C 430.37 593.06 442.77 591.32 454.69 589.37 Z" fill="#010101" />
<path d="M 438.24 593.26 C 438.74 593.76 438.74 593.76 438.24 593.26 Z" fill="#edecea" />
<path d="M 316.53 594.60 C 318.10 594.04 319.33 593.19 321.00 594.06 C 323.08 595.01 323.70 598.44 321.21 599.30 C 310.89 604.39 301.21 609.85 292.69 617.70 C 291.64 618.76 290.54 619.31 289.01 618.89 C 287.19 618.46 287.44 616.21 285.50 616.34 L 285.52 615.66 C 287.51 614.93 289.03 612.14 290.96 610.88 C 290.86 610.38 290.69 609.90 290.46 609.45 C 291.46 609.79 292.31 609.73 293.02 609.29 C 297.55 605.64 302.47 602.42 307.50 599.51 C 308.37 599.13 308.70 598.45 308.49 597.47 C 308.96 597.74 309.44 598.00 309.93 598.24 C 312.04 596.86 314.28 595.73 316.53 594.60 Z" fill="#edecea" />
<path d="M 657.28 601.26 C 657.77 601.77 657.77 601.77 657.28 601.26 Z" fill="#edecea" />
<path d="M 515.72 605.67 C 513.10 606.12 510.45 606.34 507.83 606.79 C 507.31 606.40 506.86 605.94 506.49 605.43 C 506.52 607.75 504.63 606.99 503.00 607.43 C 488.06 609.33 472.19 611.83 457.51 613.69 C 456.12 613.88 454.40 614.49 453.08 613.88 C 453.26 612.52 454.51 611.03 455.99 611.00 C 459.66 610.38 463.33 609.65 466.94 608.76 C 474.25 607.30 481.66 606.81 489.00 605.57 C 496.06 604.40 502.84 603.53 509.95 602.84 C 512.62 601.71 514.03 603.97 515.72 605.67 Z" fill="#010101" />
<path d="M 522.03 610.58 C 523.12 610.98 525.74 612.10 525.62 613.51 C 508.94 615.40 488.99 618.76 471.99 620.57 C 470.60 619.71 466.68 619.89 466.21 618.24 C 468.59 617.56 469.98 618.97 472.03 617.46 C 488.64 615.30 505.47 612.79 522.03 610.58 Z" fill="#010101" />
<path d="M 532.82 618.19 C 537.33 621.46 542.04 624.43 546.82 627.28 L 546.94 627.85 C 544.21 628.88 540.90 628.33 538.00 628.87 C 523.60 629.58 509.18 628.70 495.00 626.06 C 493.00 625.55 489.91 625.71 488.28 624.36 C 495.97 623.37 503.79 621.91 511.48 621.36 C 518.45 619.74 525.79 619.48 532.82 618.19 Z" fill="#010101" />
<path d="M 448.97 618.67 C 456.53 621.28 464.69 624.70 472.49 626.68 C 485.88 630.68 499.00 632.93 512.94 634.21 C 514.24 634.27 515.59 634.82 515.49 636.33 C 515.45 635.47 515.91 634.83 516.88 634.41 C 525.72 635.08 534.65 634.86 543.49 634.31 C 549.58 633.32 555.23 633.85 561.06 631.52 L 561.90 631.84 C 562.18 635.60 562.30 639.36 562.71 643.11 C 562.84 644.39 562.08 644.88 560.43 644.57 C 561.60 645.57 563.29 644.95 563.24 646.94 C 564.28 658.92 565.67 670.07 563.19 682.05 C 561.94 686.43 560.65 690.78 557.35 694.06 C 555.75 696.45 551.30 699.93 548.54 697.47 C 536.57 691.53 524.46 684.75 512.94 677.99 C 513.14 677.13 513.36 676.28 513.61 675.43 L 512.53 675.38 C 512.73 676.99 512.23 677.59 511.03 677.20 C 502.28 672.08 494.04 668.26 484.95 663.98 C 485.02 663.41 485.21 662.86 485.53 662.35 C 484.70 662.63 483.88 662.96 483.07 663.33 C 481.78 662.16 477.01 661.58 477.47 659.52 C 476.99 659.72 476.52 659.91 476.04 660.11 C 461.42 653.50 446.84 647.21 433.14 638.79 C 432.99 638.12 433.21 637.48 433.81 636.87 C 438.91 630.98 443.64 624.26 448.97 618.67 Z" fill="#010101" />
<path d="M 627.16 626.17 C 630.45 623.64 632.69 628.54 634.41 630.59 C 636.71 632.76 635.00 636.34 631.99 636.11 C 629.80 635.49 628.44 632.66 627.02 631.01 C 625.66 629.51 625.53 627.52 627.16 626.17 Z" fill="#edecea" />
<path d="M 604.77 639.14 C 605.63 640.62 602.31 641.45 601.32 641.60 C 600.56 640.06 603.70 638.91 604.77 639.14 Z" fill="#edecea" />
<path d="M 662.35 639.35 C 662.67 639.68 662.67 639.68 662.35 639.35 Z" fill="#edecea" />
<path d="M 674.20 640.27 L 674.82 640.27 C 675.54 642.14 673.47 642.13 674.20 640.27 Z" fill="#edecea" />
<path d="M 338.61 642.40 C 337.57 644.85 338.78 647.25 336.91 648.92 C 335.65 650.43 333.34 650.52 332.12 648.91 C 330.19 646.72 332.92 641.68 335.98 643.05 C 337.06 643.81 337.94 643.59 338.61 642.40 Z" fill="#edecea" />
<path d="M 660.38 646.39 C 660.62 646.64 660.62 646.64 660.38 646.39 Z" fill="#edecea" />
<path d="M 465.62 650.26 C 465.72 650.82 464.97 652.99 464.22 652.71 C 463.91 651.49 463.62 649.29 465.62 650.26 Z" fill="#edecea" />
<path d="M 291.40 656.40 C 291.61 656.61 291.61 656.61 291.40 656.40 Z" fill="#edecea" />
<path d="M 650.31 656.30 C 650.72 656.73 650.72 656.73 650.31 656.30 Z" fill="#edecea" />
<path d="M 681.08 672.18 C 683.14 670.98 682.97 673.59 682.76 674.85 C 681.98 675.03 680.92 672.85 681.08 672.18 Z" fill="#edecea" />
<path d="M 586.99 736.06 C 588.74 737.73 587.85 740.84 585.47 741.49 C 564.32 748.92 542.18 753.81 520.00 756.90 C 509.39 758.67 498.67 759.20 488.01 760.34 C 451.84 762.38 415.69 761.21 380.00 754.95 C 374.72 753.92 369.18 753.33 364.02 751.86 C 361.17 750.82 362.24 746.35 365.00 745.99 C 367.60 746.13 370.01 746.76 372.49 747.38 C 404.11 753.39 436.81 755.80 468.95 754.82 C 503.53 753.92 537.85 749.52 571.09 739.75 C 571.56 738.90 571.78 738.05 572.47 737.37 L 573.01 738.84 C 575.89 738.40 578.72 737.30 581.49 736.39 C 583.25 735.85 585.34 734.55 586.99 736.06 Z" fill="#edecea" />
<path d="M 458.40 751.40 C 458.61 751.60 458.61 751.60 458.40 751.40 Z" fill="#edecea" />
<path d="M 355.34 762.24 C 356.39 761.74 356.94 761.99 356.99 763.00 C 356.85 764.57 354.97 762.99 355.34 762.24 Z" fill="#edecea" />
<path d="M 576.26 777.34 C 577.01 777.25 577.21 777.74 576.85 778.81 C 575.93 778.98 575.73 778.49 576.26 777.34 Z" fill="#edecea" />
<path d="M 463.03 782.05 C 465.30 780.31 468.47 782.16 467.92 785.00 C 467.88 787.30 464.70 788.19 463.10 786.84 C 461.66 785.93 461.67 783.02 463.03 782.05 Z" fill="#edecea" />
<path d="M 434.25 801.34 C 434.98 801.22 435.16 801.68 434.78 802.70 C 433.98 802.83 433.81 802.38 434.25 801.34 Z" fill="#edecea" />
</svg>